<mxfile host="65bd71144e">
    <diagram id="ZgEcbxeytW1THy9v1wsg" name="Page-1">
        <mxGraphModel dx="1931" dy="1671" grid="1" gridSize="10" guides="1" tooltips="1" connect="1" arrows="1" fold="1" page="1" pageScale="1" pageWidth="850" pageHeight="1100" math="0" shadow="0">
            <root>
                <mxCell id="0"/>
                <mxCell id="1" parent="0"/>
                <mxCell id="67" value="" style="whiteSpace=wrap;html=1;" parent="1" vertex="1">
                    <mxGeometry x="30" y="414" width="1630" height="620" as="geometry"/>
                </mxCell>
                <mxCell id="4" value="Xr" style="whiteSpace=wrap;html=1;" parent="1" vertex="1">
                    <mxGeometry x="290" y="494" width="30" height="60" as="geometry"/>
                </mxCell>
                <mxCell id="5" value="Yr" style="whiteSpace=wrap;html=1;" parent="1" vertex="1">
                    <mxGeometry x="290" y="554" width="30" height="60" as="geometry"/>
                </mxCell>
                <mxCell id="6" value="Zr" style="whiteSpace=wrap;html=1;" parent="1" vertex="1">
                    <mxGeometry x="290" y="614" width="30" height="60" as="geometry"/>
                </mxCell>
                <mxCell id="7" value="M (255 bits)" style="whiteSpace=wrap;html=1;" parent="1" vertex="1">
                    <mxGeometry x="350" y="939" width="230" height="30" as="geometry"/>
                </mxCell>
                <mxCell id="8" value="Xp" style="whiteSpace=wrap;html=1;" parent="1" vertex="1">
                    <mxGeometry x="290" y="714" width="30" height="60" as="geometry"/>
                </mxCell>
                <mxCell id="9" value="Yp" style="whiteSpace=wrap;html=1;" parent="1" vertex="1">
                    <mxGeometry x="290" y="774" width="30" height="60" as="geometry"/>
                </mxCell>
                <mxCell id="11" value="" style="whiteSpace=wrap;html=1;" parent="1" vertex="1">
                    <mxGeometry x="500" y="494" width="870" height="340" as="geometry"/>
                </mxCell>
                <mxCell id="12" value="" style="edgeStyle=none;orthogonalLoop=1;jettySize=auto;html=1;entryX=0;entryY=0.261;entryDx=0;entryDy=0;entryPerimeter=0;" parent="1" target="11" edge="1">
                    <mxGeometry width="80" relative="1" as="geometry">
                        <mxPoint x="320" y="583.41" as="sourcePoint"/>
                        <mxPoint x="400" y="583.41" as="targetPoint"/>
                        <Array as="points"/>
                    </mxGeometry>
                </mxCell>
                <mxCell id="13" value="" style="edgeStyle=none;orthogonalLoop=1;jettySize=auto;html=1;exitX=1;exitY=0.5;exitDx=0;exitDy=0;entryX=0.25;entryY=1;entryDx=0;entryDy=0;" parent="1" source="5" target="14" edge="1">
                    <mxGeometry width="80" relative="1" as="geometry">
                        <mxPoint x="360" y="584" as="sourcePoint"/>
                        <mxPoint x="400" y="744" as="targetPoint"/>
                        <Array as="points">
                            <mxPoint x="360" y="584"/>
                            <mxPoint x="370" y="764"/>
                        </Array>
                    </mxGeometry>
                </mxCell>
                <mxCell id="14" value="" style="shape=trapezoid;perimeter=trapezoidPerimeter;whiteSpace=wrap;html=1;fixedSize=1;direction=south;size=10;" parent="1" vertex="1">
                    <mxGeometry x="410" y="744" width="20" height="80" as="geometry"/>
                </mxCell>
                <mxCell id="16" value="" style="edgeStyle=none;orthogonalLoop=1;jettySize=auto;html=1;exitX=1;exitY=0.5;exitDx=0;exitDy=0;entryX=0.75;entryY=1;entryDx=0;entryDy=0;" parent="1" source="9" target="14" edge="1">
                    <mxGeometry width="80" relative="1" as="geometry">
                        <mxPoint x="340" y="784" as="sourcePoint"/>
                        <mxPoint x="420" y="784" as="targetPoint"/>
                        <Array as="points"/>
                    </mxGeometry>
                </mxCell>
                <mxCell id="17" value="1" style="whiteSpace=wrap;html=1;" parent="1" vertex="1">
                    <mxGeometry x="290" y="834" width="30" height="60" as="geometry"/>
                </mxCell>
                <mxCell id="18" value="" style="edgeStyle=none;orthogonalLoop=1;jettySize=auto;html=1;exitX=0.5;exitY=0;exitDx=0;exitDy=0;" parent="1" source="14" edge="1">
                    <mxGeometry width="80" relative="1" as="geometry">
                        <mxPoint x="440" y="783.6700000000001" as="sourcePoint"/>
                        <mxPoint x="500" y="784" as="targetPoint"/>
                        <Array as="points"/>
                    </mxGeometry>
                </mxCell>
                <mxCell id="19" value="X1&lt;br&gt;Y1&lt;br&gt;Z1" style="text;strokeColor=none;align=center;fillColor=none;html=1;verticalAlign=middle;whiteSpace=wrap;rounded=0;" parent="1" vertex="1">
                    <mxGeometry x="480" y="554" width="60" height="60" as="geometry"/>
                </mxCell>
                <mxCell id="20" value="X2&lt;br&gt;Y2&lt;br&gt;Z2" style="text;strokeColor=none;align=center;fillColor=none;html=1;verticalAlign=middle;whiteSpace=wrap;rounded=0;" parent="1" vertex="1">
                    <mxGeometry x="480" y="754" width="60" height="60" as="geometry"/>
                </mxCell>
                <mxCell id="22" value="Counter (8bits)" style="whiteSpace=wrap;html=1;" parent="1" vertex="1">
                    <mxGeometry x="350" y="984" width="70" height="30" as="geometry"/>
                </mxCell>
                <mxCell id="23" value="" style="edgeStyle=none;orthogonalLoop=1;jettySize=auto;html=1;entryX=1;entryY=0.5;entryDx=0;entryDy=0;" parent="1" target="14" edge="1">
                    <mxGeometry width="80" relative="1" as="geometry">
                        <mxPoint x="420" y="890" as="sourcePoint"/>
                        <mxPoint x="490" y="894" as="targetPoint"/>
                        <Array as="points"/>
                    </mxGeometry>
                </mxCell>
                <mxCell id="24" value="0" style="text;strokeColor=none;align=center;fillColor=none;html=1;verticalAlign=middle;whiteSpace=wrap;rounded=0;" parent="1" vertex="1">
                    <mxGeometry x="390" y="754" width="60" height="30" as="geometry"/>
                </mxCell>
                <mxCell id="25" value="1" style="text;strokeColor=none;align=center;fillColor=none;html=1;verticalAlign=middle;whiteSpace=wrap;rounded=0;" parent="1" vertex="1">
                    <mxGeometry x="390" y="789" width="60" height="30" as="geometry"/>
                </mxCell>
                <mxCell id="26" value="" style="whiteSpace=wrap;html=1;" parent="1" vertex="1">
                    <mxGeometry x="520" y="514" width="140" height="300" as="geometry"/>
                </mxCell>
                <mxCell id="27" value="A" style="whiteSpace=wrap;html=1;" parent="1" vertex="1">
                    <mxGeometry x="670" y="514" width="20" height="50" as="geometry"/>
                </mxCell>
                <mxCell id="28" value="B" style="whiteSpace=wrap;html=1;" parent="1" vertex="1">
                    <mxGeometry x="670" y="574" width="20" height="50" as="geometry"/>
                </mxCell>
                <mxCell id="29" value="A = Z1Z2" style="whiteSpace=wrap;html=1;" parent="1" vertex="1">
                    <mxGeometry x="530" y="524" width="120" height="40" as="geometry"/>
                </mxCell>
                <mxCell id="30" value="B = X1X2" style="whiteSpace=wrap;html=1;" parent="1" vertex="1">
                    <mxGeometry x="530" y="574" width="120" height="40" as="geometry"/>
                </mxCell>
                <mxCell id="31" value="C = Y1Y2" style="whiteSpace=wrap;html=1;" parent="1" vertex="1">
                    <mxGeometry x="530" y="624" width="120" height="40" as="geometry"/>
                </mxCell>
                <mxCell id="32" value="D = (X1+Y1)(X2+Y2)" style="whiteSpace=wrap;html=1;" parent="1" vertex="1">
                    <mxGeometry x="530" y="674" width="120" height="40" as="geometry"/>
                </mxCell>
                <mxCell id="33" value="C" style="whiteSpace=wrap;html=1;" parent="1" vertex="1">
                    <mxGeometry x="670" y="634" width="20" height="50" as="geometry"/>
                </mxCell>
                <mxCell id="34" value="D" style="whiteSpace=wrap;html=1;" parent="1" vertex="1">
                    <mxGeometry x="670" y="694" width="20" height="50" as="geometry"/>
                </mxCell>
                <mxCell id="35" value="" style="whiteSpace=wrap;html=1;" parent="1" vertex="1">
                    <mxGeometry x="700" y="514" width="140" height="300" as="geometry"/>
                </mxCell>
                <mxCell id="36" value="E = (Z1Z2)^2 &lt;br&gt;= A^2" style="whiteSpace=wrap;html=1;" parent="1" vertex="1">
                    <mxGeometry x="710" y="524" width="120" height="40" as="geometry"/>
                </mxCell>
                <mxCell id="37" value="F = X1X2Y1Y2 &lt;br&gt;= BC" style="whiteSpace=wrap;html=1;" parent="1" vertex="1">
                    <mxGeometry x="710" y="574" width="120" height="40" as="geometry"/>
                </mxCell>
                <mxCell id="38" value="H = X1X2+Y1Y2&lt;br&gt;= B+C" style="whiteSpace=wrap;html=1;" parent="1" vertex="1">
                    <mxGeometry x="710" y="674" width="120" height="40" as="geometry"/>
                </mxCell>
                <mxCell id="40" value="E" style="whiteSpace=wrap;html=1;" parent="1" vertex="1">
                    <mxGeometry x="850" y="574" width="20" height="50" as="geometry"/>
                </mxCell>
                <mxCell id="41" value="F" style="whiteSpace=wrap;html=1;" parent="1" vertex="1">
                    <mxGeometry x="850" y="634" width="20" height="50" as="geometry"/>
                </mxCell>
                <mxCell id="42" value="G" style="whiteSpace=wrap;html=1;" parent="1" vertex="1">
                    <mxGeometry x="850" y="694" width="20" height="50" as="geometry"/>
                </mxCell>
                <mxCell id="44" value="" style="whiteSpace=wrap;html=1;" parent="1" vertex="1">
                    <mxGeometry x="880" y="514" width="140" height="300" as="geometry"/>
                </mxCell>
                <mxCell id="45" value="I = dX1X2Y1Y2&amp;nbsp;&lt;br&gt;= dF" style="whiteSpace=wrap;html=1;" parent="1" vertex="1">
                    <mxGeometry x="890" y="625.5" width="120" height="40" as="geometry"/>
                </mxCell>
                <mxCell id="46" value="J = Z1Z2(G)&lt;br&gt;= AG" style="whiteSpace=wrap;html=1;" parent="1" vertex="1">
                    <mxGeometry x="890" y="524" width="120" height="40" as="geometry"/>
                </mxCell>
                <mxCell id="47" value="K = Z1Z2(H)&lt;br&gt;= AH" style="whiteSpace=wrap;html=1;" parent="1" vertex="1">
                    <mxGeometry x="890" y="574" width="120" height="40" as="geometry"/>
                </mxCell>
                <mxCell id="48" value="G = X1Y2+X2Y1 &lt;br&gt;= D-B-C" style="whiteSpace=wrap;html=1;" parent="1" vertex="1">
                    <mxGeometry x="710" y="625.5" width="120" height="40" as="geometry"/>
                </mxCell>
                <mxCell id="49" value="H" style="whiteSpace=wrap;html=1;" parent="1" vertex="1">
                    <mxGeometry x="850" y="754" width="20" height="50" as="geometry"/>
                </mxCell>
                <mxCell id="50" value="I" style="whiteSpace=wrap;html=1;" parent="1" vertex="1">
                    <mxGeometry x="1030" y="574" width="20" height="50" as="geometry"/>
                </mxCell>
                <mxCell id="51" value="J" style="whiteSpace=wrap;html=1;" parent="1" vertex="1">
                    <mxGeometry x="1030" y="634" width="20" height="50" as="geometry"/>
                </mxCell>
                <mxCell id="52" value="K" style="whiteSpace=wrap;html=1;" parent="1" vertex="1">
                    <mxGeometry x="1030" y="694" width="20" height="50" as="geometry"/>
                </mxCell>
                <mxCell id="54" value="" style="whiteSpace=wrap;html=1;" parent="1" vertex="1">
                    <mxGeometry x="1060" y="514" width="270" height="300" as="geometry"/>
                </mxCell>
                <mxCell id="55" value="L = E - I" style="whiteSpace=wrap;html=1;" parent="1" vertex="1">
                    <mxGeometry x="1070" y="524" width="120" height="40" as="geometry"/>
                </mxCell>
                <mxCell id="56" value="E" style="whiteSpace=wrap;html=1;" parent="1" vertex="1">
                    <mxGeometry x="1030" y="514" width="20" height="50" as="geometry"/>
                </mxCell>
                <mxCell id="57" value="M = E + I" style="whiteSpace=wrap;html=1;" parent="1" vertex="1">
                    <mxGeometry x="1070" y="574" width="120" height="40" as="geometry"/>
                </mxCell>
                <mxCell id="58" value="X3 = J*L" style="whiteSpace=wrap;html=1;" parent="1" vertex="1">
                    <mxGeometry x="1200" y="524" width="120" height="40" as="geometry"/>
                </mxCell>
                <mxCell id="59" value="Y3 = K*M" style="whiteSpace=wrap;html=1;" parent="1" vertex="1">
                    <mxGeometry x="1200" y="574" width="120" height="40" as="geometry"/>
                </mxCell>
                <mxCell id="60" value="Z3 = L*M" style="whiteSpace=wrap;html=1;" parent="1" vertex="1">
                    <mxGeometry x="1200" y="624" width="120" height="40" as="geometry"/>
                </mxCell>
                <mxCell id="61" value="X3&lt;br&gt;Y3&lt;br&gt;Z3" style="text;strokeColor=none;align=center;fillColor=none;html=1;verticalAlign=middle;whiteSpace=wrap;rounded=0;" parent="1" vertex="1">
                    <mxGeometry x="1330" y="644" width="60" height="30" as="geometry"/>
                </mxCell>
                <mxCell id="62" value="" style="edgeStyle=none;orthogonalLoop=1;jettySize=auto;html=1;entryX=0;entryY=0.5;entryDx=0;entryDy=0;" parent="1" target="5" edge="1">
                    <mxGeometry width="80" relative="1" as="geometry">
                        <mxPoint x="1370" y="658.3299999999999" as="sourcePoint"/>
                        <mxPoint x="1450" y="658.3299999999999" as="targetPoint"/>
                        <Array as="points">
                            <mxPoint x="1470" y="658"/>
                            <mxPoint x="1470" y="434"/>
                            <mxPoint x="220" y="434"/>
                            <mxPoint x="220" y="584"/>
                        </Array>
                    </mxGeometry>
                </mxCell>
                <mxCell id="69" value="" style="whiteSpace=wrap;html=1;" parent="1" vertex="1">
                    <mxGeometry x="-240" y="630" width="240" height="620" as="geometry"/>
                </mxCell>
                <mxCell id="70" value="Xp" style="whiteSpace=wrap;html=1;" parent="1" vertex="1">
                    <mxGeometry x="-120" y="712.5" width="30" height="60" as="geometry"/>
                </mxCell>
                <mxCell id="71" value="Yp" style="whiteSpace=wrap;html=1;" parent="1" vertex="1">
                    <mxGeometry x="-120" y="772.5" width="30" height="60" as="geometry"/>
                </mxCell>
                <mxCell id="72" value="M" style="whiteSpace=wrap;html=1;" parent="1" vertex="1">
                    <mxGeometry x="-120" y="832.5" width="30" height="60" as="geometry"/>
                </mxCell>
                <mxCell id="73" value="" style="edgeStyle=none;orthogonalLoop=1;jettySize=auto;html=1;exitX=1;exitY=0.5;exitDx=0;exitDy=0;entryX=0;entryY=0.5;entryDx=0;entryDy=0;" parent="1" source="70" target="8" edge="1">
                    <mxGeometry width="80" relative="1" as="geometry">
                        <mxPoint x="-30" y="968.67" as="sourcePoint"/>
                        <mxPoint x="50" y="968.67" as="targetPoint"/>
                        <Array as="points">
                            <mxPoint y="743"/>
                        </Array>
                    </mxGeometry>
                </mxCell>
                <mxCell id="74" value="" style="edgeStyle=none;orthogonalLoop=1;jettySize=auto;html=1;exitX=1;exitY=0.5;exitDx=0;exitDy=0;entryX=0;entryY=0.5;entryDx=0;entryDy=0;" parent="1" source="71" target="9" edge="1">
                    <mxGeometry width="80" relative="1" as="geometry">
                        <mxPoint x="-30" y="1010" as="sourcePoint"/>
                        <mxPoint x="310" y="1010" as="targetPoint"/>
                        <Array as="points">
                            <mxPoint y="803"/>
                        </Array>
                    </mxGeometry>
                </mxCell>
                <mxCell id="75" value="" style="edgeStyle=none;orthogonalLoop=1;jettySize=auto;html=1;exitX=1;exitY=0.5;exitDx=0;exitDy=0;entryX=0;entryY=0.5;entryDx=0;entryDy=0;" parent="1" source="72" target="7" edge="1">
                    <mxGeometry width="80" relative="1" as="geometry">
                        <mxPoint x="80" y="1100" as="sourcePoint"/>
                        <mxPoint x="160" y="1100" as="targetPoint"/>
                        <Array as="points">
                            <mxPoint y="863"/>
                            <mxPoint x="170" y="954"/>
                        </Array>
                    </mxGeometry>
                </mxCell>
                <mxCell id="76" value="Data-in&lt;br&gt;Controller" style="whiteSpace=wrap;html=1;" parent="1" vertex="1">
                    <mxGeometry x="-210" y="685" width="60" height="215" as="geometry"/>
                </mxCell>
                <mxCell id="77" value="i_clk" style="edgeStyle=none;orthogonalLoop=1;jettySize=auto;html=1;" parent="1" edge="1">
                    <mxGeometry width="80" relative="1" as="geometry">
                        <mxPoint x="-400" y="780" as="sourcePoint"/>
                        <mxPoint x="-240" y="780" as="targetPoint"/>
                        <Array as="points"/>
                    </mxGeometry>
                </mxCell>
                <mxCell id="78" value="i_rst" style="edgeStyle=none;orthogonalLoop=1;jettySize=auto;html=1;" parent="1" edge="1">
                    <mxGeometry width="80" relative="1" as="geometry">
                        <mxPoint x="-400" y="809.33" as="sourcePoint"/>
                        <mxPoint x="-240" y="809.33" as="targetPoint"/>
                        <Array as="points"/>
                    </mxGeometry>
                </mxCell>
                <mxCell id="80" value="i_in_valid" style="edgeStyle=none;orthogonalLoop=1;jettySize=auto;html=1;" parent="1" edge="1">
                    <mxGeometry width="80" relative="1" as="geometry">
                        <mxPoint x="-400" y="839.9999999999999" as="sourcePoint"/>
                        <mxPoint x="-240" y="839.9999999999999" as="targetPoint"/>
                        <Array as="points"/>
                    </mxGeometry>
                </mxCell>
                <mxCell id="81" value="i_in_data" style="edgeStyle=none;orthogonalLoop=1;jettySize=auto;html=1;" parent="1" edge="1">
                    <mxGeometry width="80" relative="1" as="geometry">
                        <mxPoint x="-400" y="869.46" as="sourcePoint"/>
                        <mxPoint x="-240" y="869.46" as="targetPoint"/>
                        <Array as="points"/>
                    </mxGeometry>
                </mxCell>
                <mxCell id="82" value="o_in_ready" style="edgeStyle=none;orthogonalLoop=1;jettySize=auto;html=1;" parent="1" edge="1">
                    <mxGeometry width="80" relative="1" as="geometry">
                        <mxPoint x="-240" y="898.79" as="sourcePoint"/>
                        <mxPoint x="-400" y="898.79" as="targetPoint"/>
                        <Array as="points"/>
                    </mxGeometry>
                </mxCell>
                <mxCell id="83" value="i_out_ready" style="edgeStyle=none;orthogonalLoop=1;jettySize=auto;html=1;" parent="1" edge="1">
                    <mxGeometry width="80" relative="1" as="geometry">
                        <mxPoint x="-400" y="929.46" as="sourcePoint"/>
                        <mxPoint x="-240" y="929.46" as="targetPoint"/>
                        <Array as="points"/>
                    </mxGeometry>
                </mxCell>
                <mxCell id="84" value="o_out_data" style="edgeStyle=none;orthogonalLoop=1;jettySize=auto;html=1;" parent="1" edge="1">
                    <mxGeometry width="80" relative="1" as="geometry">
                        <mxPoint x="-240" y="958.79" as="sourcePoint"/>
                        <mxPoint x="-400" y="958.79" as="targetPoint"/>
                        <Array as="points"/>
                    </mxGeometry>
                </mxCell>
                <mxCell id="85" value="o_out_valid" style="edgeStyle=none;orthogonalLoop=1;jettySize=auto;html=1;" parent="1" edge="1">
                    <mxGeometry width="80" relative="1" as="geometry">
                        <mxPoint x="-240" y="989.46" as="sourcePoint"/>
                        <mxPoint x="-400" y="989.46" as="targetPoint"/>
                        <Array as="points"/>
                    </mxGeometry>
                </mxCell>
                <mxCell id="88" value="Data-out&lt;br&gt;Controller&amp;nbsp;" style="whiteSpace=wrap;html=1;" parent="1" vertex="1">
                    <mxGeometry x="-210" y="920" width="60" height="215" as="geometry"/>
                </mxCell>
                <mxCell id="89" value="Data-process&lt;br&gt;Controller" style="whiteSpace=wrap;html=1;" parent="1" vertex="1">
                    <mxGeometry x="750" y="910" width="120" height="60" as="geometry"/>
                </mxCell>
                <mxCell id="90" value="Xg" style="whiteSpace=wrap;html=1;" parent="1" vertex="1">
                    <mxGeometry x="-120" y="969" width="30" height="60" as="geometry"/>
                </mxCell>
                <mxCell id="91" value="Yg" style="whiteSpace=wrap;html=1;" parent="1" vertex="1">
                    <mxGeometry x="-120" y="1029" width="30" height="60" as="geometry"/>
                </mxCell>
                <mxCell id="482" style="edgeStyle=none;html=1;exitX=1;exitY=1;exitDx=0;exitDy=0;" parent="1" source="92" edge="1">
                    <mxGeometry relative="1" as="geometry">
                        <mxPoint x="871" y="-590" as="targetPoint"/>
                    </mxGeometry>
                </mxCell>
                <mxCell id="92" value="S_RESET&lt;br&gt;0" style="ellipse;whiteSpace=wrap;html=1;" parent="1" vertex="1">
                    <mxGeometry x="743" y="-740" width="150" height="80" as="geometry"/>
                </mxCell>
                <mxCell id="503" style="edgeStyle=none;html=1;exitX=0;exitY=0.5;exitDx=0;exitDy=0;entryX=1;entryY=0.5;entryDx=0;entryDy=0;" parent="1" source="94" target="95" edge="1">
                    <mxGeometry relative="1" as="geometry"/>
                </mxCell>
                <mxCell id="525" style="edgeStyle=none;html=1;exitX=1;exitY=1;exitDx=0;exitDy=0;entryX=1;entryY=0;entryDx=0;entryDy=0;" parent="1" source="94" target="524" edge="1">
                    <mxGeometry relative="1" as="geometry"/>
                </mxCell>
                <mxCell id="94" value="S_PTADD1&lt;br&gt;4" style="ellipse;whiteSpace=wrap;html=1;" parent="1" vertex="1">
                    <mxGeometry x="740" y="-60" width="150" height="80" as="geometry"/>
                </mxCell>
                <mxCell id="508" style="edgeStyle=none;html=1;exitX=0;exitY=0.5;exitDx=0;exitDy=0;entryX=1;entryY=0.5;entryDx=0;entryDy=0;" parent="1" source="95" target="501" edge="1">
                    <mxGeometry relative="1" as="geometry"/>
                </mxCell>
                <mxCell id="95" value="S_PTADD2&lt;br&gt;5" style="ellipse;whiteSpace=wrap;html=1;" parent="1" vertex="1">
                    <mxGeometry x="370" y="-60" width="150" height="80" as="geometry"/>
                </mxCell>
                <mxCell id="97" value="" style="whiteSpace=wrap;html=1;" parent="1" vertex="1">
                    <mxGeometry x="120" y="1089" width="1630" height="620" as="geometry"/>
                </mxCell>
                <mxCell id="99" value="Xmp" style="whiteSpace=wrap;html=1;" parent="1" vertex="1">
                    <mxGeometry x="100" y="1460" width="30" height="60" as="geometry"/>
                </mxCell>
                <mxCell id="100" value="Ymp" style="whiteSpace=wrap;html=1;" parent="1" vertex="1">
                    <mxGeometry x="100" y="1520" width="30" height="60" as="geometry"/>
                </mxCell>
                <mxCell id="105" value="r" style="whiteSpace=wrap;html=1;" parent="1" vertex="1">
                    <mxGeometry x="170" y="1140" width="30" height="60" as="geometry"/>
                </mxCell>
                <mxCell id="101" value="Zmp" style="whiteSpace=wrap;html=1;" parent="1" vertex="1">
                    <mxGeometry x="170" y="1220" width="30" height="60" as="geometry"/>
                </mxCell>
                <mxCell id="107" value="" style="edgeStyle=none;orthogonalLoop=1;jettySize=auto;html=1;exitX=1;exitY=0.5;exitDx=0;exitDy=0;entryX=0;entryY=0.25;entryDx=0;entryDy=0;" parent="1" source="105" edge="1">
                    <mxGeometry width="80" relative="1" as="geometry">
                        <mxPoint x="210" y="1159.5" as="sourcePoint"/>
                        <mxPoint x="290" y="1170" as="targetPoint"/>
                        <Array as="points"/>
                    </mxGeometry>
                </mxCell>
                <mxCell id="108" value="" style="edgeStyle=none;orthogonalLoop=1;jettySize=auto;html=1;exitX=1;exitY=0.5;exitDx=0;exitDy=0;entryX=0.75;entryY=1;entryDx=0;entryDy=0;" parent="1" source="101" target="109" edge="1">
                    <mxGeometry width="80" relative="1" as="geometry">
                        <mxPoint x="220" y="1259.5" as="sourcePoint"/>
                        <mxPoint x="300" y="1259.5" as="targetPoint"/>
                        <Array as="points"/>
                    </mxGeometry>
                </mxCell>
                <mxCell id="109" value="" style="shape=trapezoid;perimeter=trapezoidPerimeter;whiteSpace=wrap;html=1;fixedSize=1;direction=south;size=10;" parent="1" vertex="1">
                    <mxGeometry x="240" y="1212" width="10" height="50" as="geometry"/>
                </mxCell>
                <mxCell id="110" value="" style="edgeStyle=none;orthogonalLoop=1;jettySize=auto;html=1;exitX=1;exitY=0.5;exitDx=0;exitDy=0;entryX=0.25;entryY=1;entryDx=0;entryDy=0;" parent="1" source="105" target="109" edge="1">
                    <mxGeometry width="80" relative="1" as="geometry">
                        <mxPoint x="210" y="1180" as="sourcePoint"/>
                        <mxPoint x="295" y="1180" as="targetPoint"/>
                        <Array as="points">
                            <mxPoint x="210" y="1170"/>
                            <mxPoint x="220" y="1225"/>
                        </Array>
                    </mxGeometry>
                </mxCell>
                <mxCell id="111" value="" style="edgeStyle=none;orthogonalLoop=1;jettySize=auto;html=1;" parent="1" edge="1">
                    <mxGeometry width="80" relative="1" as="geometry">
                        <mxPoint x="250" y="1236.71" as="sourcePoint"/>
                        <mxPoint x="290" y="1237" as="targetPoint"/>
                        <Array as="points"/>
                    </mxGeometry>
                </mxCell>
                <mxCell id="112" value="q-2 (255 bits)" style="whiteSpace=wrap;html=1;" parent="1" vertex="1">
                    <mxGeometry x="170" y="1320" width="120" height="20" as="geometry"/>
                </mxCell>
                <mxCell id="113" value="counter (8 bits)" style="whiteSpace=wrap;html=1;" parent="1" vertex="1">
                    <mxGeometry x="300" y="1320" width="120" height="20" as="geometry"/>
                </mxCell>
                <mxCell id="114" value="" style="edgeStyle=none;orthogonalLoop=1;jettySize=auto;html=1;exitX=0.5;exitY=0;exitDx=0;exitDy=0;entryX=1;entryY=0.5;entryDx=0;entryDy=0;" parent="1" source="112" target="109" edge="1">
                    <mxGeometry width="80" relative="1" as="geometry">
                        <mxPoint x="240" y="1040" as="sourcePoint"/>
                        <mxPoint x="320" y="1040" as="targetPoint"/>
                        <Array as="points">
                            <mxPoint x="230" y="1300"/>
                            <mxPoint x="245" y="1290"/>
                        </Array>
                    </mxGeometry>
                </mxCell>
                <mxCell id="115" value="0" style="text;strokeColor=none;align=center;fillColor=none;html=1;verticalAlign=middle;whiteSpace=wrap;rounded=0;" parent="1" vertex="1">
                    <mxGeometry x="215" y="1212" width="60" height="30" as="geometry"/>
                </mxCell>
                <mxCell id="116" value="1" style="text;strokeColor=none;align=center;fillColor=none;html=1;verticalAlign=middle;whiteSpace=wrap;rounded=0;" parent="1" vertex="1">
                    <mxGeometry x="215" y="1232" width="60" height="30" as="geometry"/>
                </mxCell>
                <mxCell id="117" value="controller" style="whiteSpace=wrap;html=1;" parent="1" vertex="1">
                    <mxGeometry x="430" y="1320" width="120" height="20" as="geometry"/>
                </mxCell>
                <mxCell id="118" value="" style="edgeStyle=none;orthogonalLoop=1;jettySize=auto;html=1;exitX=1;exitY=0.5;exitDx=0;exitDy=0;entryX=0;entryY=0.5;entryDx=0;entryDy=0;" parent="1" target="105" edge="1">
                    <mxGeometry width="80" relative="1" as="geometry">
                        <mxPoint x="410" y="1210" as="sourcePoint"/>
                        <mxPoint x="530" y="1232" as="targetPoint"/>
                        <Array as="points">
                            <mxPoint x="530" y="1210"/>
                            <mxPoint x="530" y="1120"/>
                            <mxPoint x="150" y="1120"/>
                            <mxPoint x="150" y="1170"/>
                        </Array>
                    </mxGeometry>
                </mxCell>
                <mxCell id="119" value="" style="edgeStyle=none;orthogonalLoop=1;jettySize=auto;html=1;exitX=1;exitY=0.5;exitDx=0;exitDy=0;entryX=1;entryY=0.5;entryDx=0;entryDy=0;" parent="1" source="105" edge="1">
                    <mxGeometry width="80" relative="1" as="geometry">
                        <mxPoint x="210" y="1180" as="sourcePoint"/>
                        <mxPoint x="560" y="1230" as="targetPoint"/>
                        <Array as="points">
                            <mxPoint x="270" y="1170"/>
                            <mxPoint x="270" y="1300"/>
                            <mxPoint x="510" y="1300"/>
                            <mxPoint x="510" y="1230"/>
                        </Array>
                    </mxGeometry>
                </mxCell>
                <mxCell id="120" value="inv_Zmp" style="text;strokeColor=none;align=center;fillColor=none;html=1;verticalAlign=middle;whiteSpace=wrap;rounded=0;" parent="1" vertex="1">
                    <mxGeometry x="560" y="1215" width="60" height="30" as="geometry"/>
                </mxCell>
                <mxCell id="121" value="" style="edgeStyle=none;orthogonalLoop=1;jettySize=auto;html=1;entryX=0;entryY=0.5;entryDx=0;entryDy=0;" parent="1" target="101" edge="1">
                    <mxGeometry width="80" relative="1" as="geometry">
                        <mxPoint x="10" y="1250" as="sourcePoint"/>
                        <mxPoint x="90" y="1250" as="targetPoint"/>
                        <Array as="points"/>
                    </mxGeometry>
                </mxCell>
                <mxCell id="122" value="" style="edgeStyle=none;orthogonalLoop=1;jettySize=auto;html=1;entryX=0;entryY=0.5;entryDx=0;entryDy=0;" parent="1" edge="1">
                    <mxGeometry width="80" relative="1" as="geometry">
                        <mxPoint x="10" y="1489" as="sourcePoint"/>
                        <mxPoint x="100" y="1489.41" as="targetPoint"/>
                        <Array as="points"/>
                    </mxGeometry>
                </mxCell>
                <mxCell id="123" value="" style="edgeStyle=none;orthogonalLoop=1;jettySize=auto;html=1;entryX=0;entryY=0.5;entryDx=0;entryDy=0;" parent="1" edge="1">
                    <mxGeometry width="80" relative="1" as="geometry">
                        <mxPoint x="10" y="1549.41" as="sourcePoint"/>
                        <mxPoint x="100" y="1549.82" as="targetPoint"/>
                        <Array as="points"/>
                    </mxGeometry>
                </mxCell>
                <mxCell id="124" value="MM Multiplier" style="whiteSpace=wrap;html=1;" parent="1" vertex="1">
                    <mxGeometry x="330" y="1370" width="120" height="160" as="geometry"/>
                </mxCell>
                <mxCell id="126" value="" style="whiteSpace=wrap;html=1;" parent="1" vertex="1">
                    <mxGeometry x="1980" y="424" width="1690" height="866" as="geometry"/>
                </mxCell>
                <mxCell id="349" style="edgeStyle=none;html=1;exitX=1;exitY=0.5;exitDx=0;exitDy=0;entryX=0.25;entryY=1;entryDx=0;entryDy=0;" parent="1" source="128" target="348" edge="1">
                    <mxGeometry relative="1" as="geometry">
                        <Array as="points">
                            <mxPoint x="2180" y="504"/>
                            <mxPoint x="2180" y="459"/>
                        </Array>
                    </mxGeometry>
                </mxCell>
                <mxCell id="385" style="edgeStyle=none;html=1;exitX=1;exitY=0.5;exitDx=0;exitDy=0;entryX=0.25;entryY=1;entryDx=0;entryDy=0;" parent="1" source="128" target="384" edge="1">
                    <mxGeometry relative="1" as="geometry">
                        <Array as="points">
                            <mxPoint x="2060" y="504"/>
                            <mxPoint x="2060" y="865"/>
                        </Array>
                    </mxGeometry>
                </mxCell>
                <mxCell id="128" value="X1" style="whiteSpace=wrap;html=1;" parent="1" vertex="1">
                    <mxGeometry x="1980" y="484" width="40" height="40" as="geometry"/>
                </mxCell>
                <mxCell id="353" style="edgeStyle=none;html=1;exitX=1;exitY=0.5;exitDx=0;exitDy=0;entryX=0.25;entryY=1;entryDx=0;entryDy=0;" parent="1" source="129" target="352" edge="1">
                    <mxGeometry relative="1" as="geometry">
                        <Array as="points">
                            <mxPoint x="2080" y="574"/>
                            <mxPoint x="2080" y="548"/>
                        </Array>
                    </mxGeometry>
                </mxCell>
                <mxCell id="396" style="edgeStyle=none;html=1;exitX=1;exitY=0.5;exitDx=0;exitDy=0;entryX=0.25;entryY=1;entryDx=0;entryDy=0;" parent="1" source="129" target="394" edge="1">
                    <mxGeometry relative="1" as="geometry">
                        <Array as="points">
                            <mxPoint x="2070" y="574"/>
                            <mxPoint x="2070" y="1004"/>
                        </Array>
                    </mxGeometry>
                </mxCell>
                <mxCell id="129" value="X2" style="whiteSpace=wrap;html=1;" parent="1" vertex="1">
                    <mxGeometry x="1980" y="554" width="40" height="40" as="geometry"/>
                </mxCell>
                <mxCell id="359" style="edgeStyle=none;html=1;exitX=1;exitY=0.5;exitDx=0;exitDy=0;entryX=0.25;entryY=1;entryDx=0;entryDy=0;" parent="1" source="130" target="358" edge="1">
                    <mxGeometry relative="1" as="geometry">
                        <Array as="points">
                            <mxPoint x="2060" y="644"/>
                            <mxPoint x="2060" y="630"/>
                        </Array>
                    </mxGeometry>
                </mxCell>
                <mxCell id="390" style="edgeStyle=none;html=1;exitX=1;exitY=0.5;exitDx=0;exitDy=0;entryX=0.25;entryY=1;entryDx=0;entryDy=0;" parent="1" source="130" target="389" edge="1">
                    <mxGeometry relative="1" as="geometry">
                        <Array as="points">
                            <mxPoint x="2080" y="644"/>
                            <mxPoint x="2080" y="935"/>
                        </Array>
                    </mxGeometry>
                </mxCell>
                <mxCell id="130" value="Y1" style="whiteSpace=wrap;html=1;" parent="1" vertex="1">
                    <mxGeometry x="1980" y="624" width="40" height="40" as="geometry"/>
                </mxCell>
                <mxCell id="365" style="edgeStyle=none;html=1;exitX=1;exitY=0.5;exitDx=0;exitDy=0;entryX=0.25;entryY=1;entryDx=0;entryDy=0;" parent="1" source="131" target="364" edge="1">
                    <mxGeometry relative="1" as="geometry">
                        <Array as="points">
                            <mxPoint x="2050" y="714"/>
                            <mxPoint x="2050" y="706"/>
                        </Array>
                    </mxGeometry>
                </mxCell>
                <mxCell id="400" style="edgeStyle=none;html=1;exitX=1;exitY=0.5;exitDx=0;exitDy=0;entryX=0.25;entryY=1;entryDx=0;entryDy=0;" parent="1" source="131" target="395" edge="1">
                    <mxGeometry relative="1" as="geometry">
                        <Array as="points">
                            <mxPoint x="2050" y="714"/>
                            <mxPoint x="2050" y="1070"/>
                        </Array>
                    </mxGeometry>
                </mxCell>
                <mxCell id="131" value="Y2" style="whiteSpace=wrap;html=1;" parent="1" vertex="1">
                    <mxGeometry x="1980" y="694" width="40" height="40" as="geometry"/>
                </mxCell>
                <mxCell id="372" style="edgeStyle=none;html=1;exitX=1;exitY=0.5;exitDx=0;exitDy=0;entryX=0.25;entryY=1;entryDx=0;entryDy=0;" parent="1" source="132" target="371" edge="1">
                    <mxGeometry relative="1" as="geometry">
                        <Array as="points">
                            <mxPoint x="2220" y="784"/>
                            <mxPoint x="2220" y="754"/>
                        </Array>
                    </mxGeometry>
                </mxCell>
                <mxCell id="132" value="Z1" style="whiteSpace=wrap;html=1;" parent="1" vertex="1">
                    <mxGeometry x="1980" y="764" width="40" height="40" as="geometry"/>
                </mxCell>
                <mxCell id="379" style="edgeStyle=none;html=1;exitX=1;exitY=0.5;exitDx=0;exitDy=0;entryX=0.25;entryY=1;entryDx=0;entryDy=0;" parent="1" source="133" target="378" edge="1">
                    <mxGeometry relative="1" as="geometry">
                        <Array as="points">
                            <mxPoint x="2180" y="854"/>
                            <mxPoint x="2180" y="825"/>
                        </Array>
                    </mxGeometry>
                </mxCell>
                <mxCell id="133" value="Z2" style="whiteSpace=wrap;html=1;" parent="1" vertex="1">
                    <mxGeometry x="1980" y="834" width="40" height="40" as="geometry"/>
                </mxCell>
                <mxCell id="168" value="Reg1" style="whiteSpace=wrap;html=1;" parent="1" vertex="1">
                    <mxGeometry x="3610" y="810" width="60" height="40" as="geometry"/>
                </mxCell>
                <mxCell id="169" value="Reg2" style="whiteSpace=wrap;html=1;" parent="1" vertex="1">
                    <mxGeometry x="3610" y="886" width="60" height="40" as="geometry"/>
                </mxCell>
                <mxCell id="170" value="Reg3" style="whiteSpace=wrap;html=1;" parent="1" vertex="1">
                    <mxGeometry x="3610" y="965" width="60" height="40" as="geometry"/>
                </mxCell>
                <mxCell id="171" value="Reg4" style="whiteSpace=wrap;html=1;" parent="1" vertex="1">
                    <mxGeometry x="3610" y="1045" width="60" height="40" as="geometry"/>
                </mxCell>
                <mxCell id="176" value="" style="whiteSpace=wrap;html=1;" parent="1" vertex="1">
                    <mxGeometry x="1400" y="-100" width="870" height="340" as="geometry"/>
                </mxCell>
                <mxCell id="177" value="" style="whiteSpace=wrap;html=1;" parent="1" vertex="1">
                    <mxGeometry x="1420" y="-80" width="140" height="300" as="geometry"/>
                </mxCell>
                <mxCell id="178" value="A" style="whiteSpace=wrap;html=1;" parent="1" vertex="1">
                    <mxGeometry x="1570" y="-80" width="20" height="50" as="geometry"/>
                </mxCell>
                <mxCell id="179" value="B" style="whiteSpace=wrap;html=1;" parent="1" vertex="1">
                    <mxGeometry x="1570" y="-20" width="20" height="50" as="geometry"/>
                </mxCell>
                <mxCell id="180" value="A = Z1Z2" style="whiteSpace=wrap;html=1;" parent="1" vertex="1">
                    <mxGeometry x="1430" y="-70" width="120" height="40" as="geometry"/>
                </mxCell>
                <mxCell id="181" value="B = X1X2" style="whiteSpace=wrap;html=1;" parent="1" vertex="1">
                    <mxGeometry x="1430" y="-20" width="120" height="40" as="geometry"/>
                </mxCell>
                <mxCell id="182" value="C = Y1Y2" style="whiteSpace=wrap;html=1;" parent="1" vertex="1">
                    <mxGeometry x="1430" y="30" width="120" height="40" as="geometry"/>
                </mxCell>
                <mxCell id="183" value="D = X1+Y1" style="whiteSpace=wrap;html=1;" parent="1" vertex="1">
                    <mxGeometry x="1430" y="80" width="120" height="40" as="geometry"/>
                </mxCell>
                <mxCell id="184" value="C" style="whiteSpace=wrap;html=1;" parent="1" vertex="1">
                    <mxGeometry x="1570" y="40" width="20" height="50" as="geometry"/>
                </mxCell>
                <mxCell id="185" value="D" style="whiteSpace=wrap;html=1;" parent="1" vertex="1">
                    <mxGeometry x="1570" y="100" width="20" height="50" as="geometry"/>
                </mxCell>
                <mxCell id="186" value="" style="whiteSpace=wrap;html=1;" parent="1" vertex="1">
                    <mxGeometry x="1600" y="-80" width="140" height="300" as="geometry"/>
                </mxCell>
                <mxCell id="187" value="F = (Z1Z2)^2 &lt;br&gt;= A^2" style="whiteSpace=wrap;html=1;" parent="1" vertex="1">
                    <mxGeometry x="1610" y="-70" width="120" height="40" as="geometry"/>
                </mxCell>
                <mxCell id="188" value="G = X1X2Y1Y2 &lt;br&gt;= BC" style="whiteSpace=wrap;html=1;" parent="1" vertex="1">
                    <mxGeometry x="1610" y="-20" width="120" height="40" as="geometry"/>
                </mxCell>
                <mxCell id="189" value="H = X1X2+Y1Y2&lt;br&gt;= B+C" style="whiteSpace=wrap;html=1;" parent="1" vertex="1">
                    <mxGeometry x="1610" y="30" width="120" height="40" as="geometry"/>
                </mxCell>
                <mxCell id="190" value="F" style="whiteSpace=wrap;html=1;" parent="1" vertex="1">
                    <mxGeometry x="1750" y="-80" width="20" height="50" as="geometry"/>
                </mxCell>
                <mxCell id="191" value="G" style="whiteSpace=wrap;html=1;" parent="1" vertex="1">
                    <mxGeometry x="1750" y="-20" width="20" height="50" as="geometry"/>
                </mxCell>
                <mxCell id="192" value="H" style="whiteSpace=wrap;html=1;" parent="1" vertex="1">
                    <mxGeometry x="1750" y="40" width="20" height="50" as="geometry"/>
                </mxCell>
                <mxCell id="193" value="" style="whiteSpace=wrap;html=1;" parent="1" vertex="1">
                    <mxGeometry x="1780" y="-80" width="140" height="300" as="geometry"/>
                </mxCell>
                <mxCell id="194" value="J = dX1X2Y1Y2&amp;nbsp;&lt;br&gt;= dG" style="whiteSpace=wrap;html=1;" parent="1" vertex="1">
                    <mxGeometry x="1790" y="-70" width="120" height="40" as="geometry"/>
                </mxCell>
                <mxCell id="195" value="K = Z1Z2(H)&lt;br&gt;= AH" style="whiteSpace=wrap;html=1;" parent="1" vertex="1">
                    <mxGeometry x="1790" y="-20" width="120" height="40" as="geometry"/>
                </mxCell>
                <mxCell id="196" value="L = Z1Z2(G)&lt;br&gt;= AG" style="whiteSpace=wrap;html=1;" parent="1" vertex="1">
                    <mxGeometry x="1790" y="30" width="120" height="40" as="geometry"/>
                </mxCell>
                <mxCell id="197" value="I = (X1+Y1)(X2+Y2)&lt;br&gt;= DE" style="whiteSpace=wrap;html=1;" parent="1" vertex="1">
                    <mxGeometry x="1610" y="80" width="120" height="40" as="geometry"/>
                </mxCell>
                <mxCell id="198" value="I" style="whiteSpace=wrap;html=1;" parent="1" vertex="1">
                    <mxGeometry x="1750" y="100" width="20" height="50" as="geometry"/>
                </mxCell>
                <mxCell id="199" value="I" style="whiteSpace=wrap;html=1;" parent="1" vertex="1">
                    <mxGeometry x="1930" y="-20" width="20" height="50" as="geometry"/>
                </mxCell>
                <mxCell id="200" value="J" style="whiteSpace=wrap;html=1;" parent="1" vertex="1">
                    <mxGeometry x="1930" y="40" width="20" height="50" as="geometry"/>
                </mxCell>
                <mxCell id="201" value="K" style="whiteSpace=wrap;html=1;" parent="1" vertex="1">
                    <mxGeometry x="1930" y="100" width="20" height="50" as="geometry"/>
                </mxCell>
                <mxCell id="202" value="" style="whiteSpace=wrap;html=1;" parent="1" vertex="1">
                    <mxGeometry x="1960" y="-80" width="270" height="300" as="geometry"/>
                </mxCell>
                <mxCell id="203" value="L = E - I" style="whiteSpace=wrap;html=1;" parent="1" vertex="1">
                    <mxGeometry x="1970" y="-70" width="120" height="40" as="geometry"/>
                </mxCell>
                <mxCell id="204" value="E" style="whiteSpace=wrap;html=1;" parent="1" vertex="1">
                    <mxGeometry x="1930" y="-80" width="20" height="50" as="geometry"/>
                </mxCell>
                <mxCell id="205" value="M = E + I" style="whiteSpace=wrap;html=1;" parent="1" vertex="1">
                    <mxGeometry x="1970" y="-20" width="120" height="40" as="geometry"/>
                </mxCell>
                <mxCell id="206" value="X3 = J*L" style="whiteSpace=wrap;html=1;" parent="1" vertex="1">
                    <mxGeometry x="2100" y="-70" width="120" height="40" as="geometry"/>
                </mxCell>
                <mxCell id="207" value="Y3 = K*M" style="whiteSpace=wrap;html=1;" parent="1" vertex="1">
                    <mxGeometry x="2100" y="-20" width="120" height="40" as="geometry"/>
                </mxCell>
                <mxCell id="208" value="Z3 = L*M" style="whiteSpace=wrap;html=1;" parent="1" vertex="1">
                    <mxGeometry x="2100" y="30" width="120" height="40" as="geometry"/>
                </mxCell>
                <mxCell id="209" value="X3&lt;br&gt;Y3&lt;br&gt;Z3" style="text;strokeColor=none;align=center;fillColor=none;html=1;verticalAlign=middle;whiteSpace=wrap;rounded=0;" parent="1" vertex="1">
                    <mxGeometry x="2230" y="50" width="60" height="30" as="geometry"/>
                </mxCell>
                <mxCell id="210" value="E = X2 + Y2" style="whiteSpace=wrap;html=1;" parent="1" vertex="1">
                    <mxGeometry x="1430" y="130" width="120" height="40" as="geometry"/>
                </mxCell>
                <mxCell id="212" value="E" style="whiteSpace=wrap;html=1;" parent="1" vertex="1">
                    <mxGeometry x="1570" y="160" width="20" height="50" as="geometry"/>
                </mxCell>
                <mxCell id="272" style="edgeStyle=none;html=1;exitX=0.5;exitY=1;exitDx=0;exitDy=0;" parent="1" source="260" target="264" edge="1">
                    <mxGeometry relative="1" as="geometry"/>
                </mxCell>
                <mxCell id="260" value="S_RECV_M&lt;br&gt;1" style="ellipse;whiteSpace=wrap;html=1;" parent="1" vertex="1">
                    <mxGeometry x="-450" y="1870" width="130" height="60" as="geometry"/>
                </mxCell>
                <mxCell id="262" style="edgeStyle=none;html=1;exitX=0.5;exitY=1;exitDx=0;exitDy=0;entryX=0.5;entryY=0;entryDx=0;entryDy=0;" parent="1" source="261" target="260" edge="1">
                    <mxGeometry relative="1" as="geometry"/>
                </mxCell>
                <mxCell id="261" value="S_RESET&lt;br&gt;0" style="ellipse;whiteSpace=wrap;html=1;" parent="1" vertex="1">
                    <mxGeometry x="-450" y="1680" width="130" height="60" as="geometry"/>
                </mxCell>
                <mxCell id="264" value="S_RECV_X&lt;br&gt;2" style="ellipse;whiteSpace=wrap;html=1;" parent="1" vertex="1">
                    <mxGeometry x="-450" y="2090" width="130" height="60" as="geometry"/>
                </mxCell>
                <mxCell id="276" value="o_in_ready = 1&lt;br&gt;update_m = io_fire&lt;br&gt;incr_ctr = io_fire" style="whiteSpace=wrap;html=1;fillColor=#60a917;fontColor=#ffffff;strokeColor=#2D7600;" parent="1" vertex="1">
                    <mxGeometry x="-320" y="1870" width="120" height="45" as="geometry"/>
                </mxCell>
                <mxCell id="279" value="counter == 3 &amp;amp;&amp;amp;&lt;br&gt;io_fire == 1" style="whiteSpace=wrap;html=1;fillColor=#a20025;fontColor=#ffffff;strokeColor=#6F0000;" parent="1" vertex="1">
                    <mxGeometry x="-370" y="1970" width="120" height="30" as="geometry"/>
                </mxCell>
                <mxCell id="295" style="edgeStyle=none;html=1;exitX=0.5;exitY=1;exitDx=0;exitDy=0;entryX=0.5;entryY=0;entryDx=0;entryDy=0;" parent="1" source="281" target="294" edge="1">
                    <mxGeometry relative="1" as="geometry"/>
                </mxCell>
                <mxCell id="281" value="S_RECV_Y&lt;br&gt;3" style="ellipse;whiteSpace=wrap;html=1;" parent="1" vertex="1">
                    <mxGeometry x="-450" y="2300" width="130" height="60" as="geometry"/>
                </mxCell>
                <mxCell id="282" style="edgeStyle=none;html=1;exitX=0.5;exitY=1;exitDx=0;exitDy=0;entryX=0.5;entryY=0;entryDx=0;entryDy=0;" parent="1" target="281" edge="1">
                    <mxGeometry relative="1" as="geometry">
                        <mxPoint x="-385.67" y="2150" as="sourcePoint"/>
                        <mxPoint x="-385.67" y="2310" as="targetPoint"/>
                    </mxGeometry>
                </mxCell>
                <mxCell id="283" value="o_in_ready = 1&lt;br&gt;update_x = io_fire&lt;br&gt;incr_ctr = io_fire" style="whiteSpace=wrap;html=1;fillColor=#60a917;fontColor=#ffffff;strokeColor=#2D7600;" parent="1" vertex="1">
                    <mxGeometry x="-320" y="2090" width="120" height="45" as="geometry"/>
                </mxCell>
                <mxCell id="287" value="counter == 3 &amp;amp;&amp;amp;&lt;br&gt;io_fire == 1" style="whiteSpace=wrap;html=1;fillColor=#a20025;fontColor=#ffffff;strokeColor=#6F0000;" parent="1" vertex="1">
                    <mxGeometry x="-370" y="2210" width="120" height="30" as="geometry"/>
                </mxCell>
                <mxCell id="292" value="counter == 3 &amp;amp;&amp;amp;&lt;br&gt;io_fire == 1" style="whiteSpace=wrap;html=1;fillColor=#a20025;fontColor=#ffffff;strokeColor=#6F0000;" parent="1" vertex="1">
                    <mxGeometry x="-370" y="2410" width="120" height="30" as="geometry"/>
                </mxCell>
                <mxCell id="298" style="edgeStyle=none;html=1;exitX=0;exitY=0.5;exitDx=0;exitDy=0;entryX=0.5;entryY=0;entryDx=0;entryDy=0;" parent="1" source="294" target="260" edge="1">
                    <mxGeometry relative="1" as="geometry">
                        <Array as="points">
                            <mxPoint x="-810" y="2540"/>
                            <mxPoint x="-810" y="1770"/>
                            <mxPoint x="-385" y="1770"/>
                        </Array>
                    </mxGeometry>
                </mxCell>
                <mxCell id="294" value="S_DONE&lt;br&gt;4" style="ellipse;whiteSpace=wrap;html=1;" parent="1" vertex="1">
                    <mxGeometry x="-450" y="2510" width="130" height="60" as="geometry"/>
                </mxCell>
                <mxCell id="296" value="o_in_ready = 1&lt;br&gt;update_y = io_fire&lt;br&gt;incr_ctr = io_fire" style="whiteSpace=wrap;html=1;fillColor=#60a917;fontColor=#ffffff;strokeColor=#2D7600;" parent="1" vertex="1">
                    <mxGeometry x="-320" y="2305" width="120" height="55" as="geometry"/>
                </mxCell>
                <mxCell id="297" value="o_ptadd_valid = 1" style="whiteSpace=wrap;html=1;fillColor=#60a917;fontColor=#ffffff;strokeColor=#2D7600;" parent="1" vertex="1">
                    <mxGeometry x="-320" y="2525" width="120" height="30" as="geometry"/>
                </mxCell>
                <mxCell id="299" value="ptadd_fire = 1" style="whiteSpace=wrap;html=1;fillColor=#a20025;fontColor=#ffffff;strokeColor=#6F0000;" parent="1" vertex="1">
                    <mxGeometry x="-680" y="2520" width="120" height="30" as="geometry"/>
                </mxCell>
                <mxCell id="535" style="edgeStyle=none;html=1;exitX=0.5;exitY=1;exitDx=0;exitDy=0;entryX=0.5;entryY=0;entryDx=0;entryDy=0;" parent="1" source="300" target="534" edge="1">
                    <mxGeometry relative="1" as="geometry"/>
                </mxCell>
                <mxCell id="300" value="S_RESET&lt;br&gt;0" style="ellipse;whiteSpace=wrap;html=1;" parent="1" vertex="1">
                    <mxGeometry x="210" y="1780" width="180" height="60" as="geometry"/>
                </mxCell>
                <mxCell id="304" style="edgeStyle=none;html=1;exitX=0.5;exitY=1;exitDx=0;exitDy=0;entryX=0.5;entryY=0;entryDx=0;entryDy=0;" parent="1" source="301" target="302" edge="1">
                    <mxGeometry relative="1" as="geometry"/>
                </mxCell>
                <mxCell id="301" value="S_TRANS_X&lt;br&gt;3" style="ellipse;whiteSpace=wrap;html=1;" parent="1" vertex="1">
                    <mxGeometry x="210" y="2290" width="180" height="60" as="geometry"/>
                </mxCell>
                <mxCell id="317" style="edgeStyle=none;html=1;exitX=0;exitY=0.5;exitDx=0;exitDy=0;entryX=0;entryY=0.5;entryDx=0;entryDy=0;" parent="1" source="302" target="306" edge="1">
                    <mxGeometry relative="1" as="geometry">
                        <Array as="points">
                            <mxPoint x="20" y="2520"/>
                            <mxPoint x="20" y="2090"/>
                        </Array>
                    </mxGeometry>
                </mxCell>
                <mxCell id="302" value="S_TRANS_Y&lt;br&gt;4" style="ellipse;whiteSpace=wrap;html=1;" parent="1" vertex="1">
                    <mxGeometry x="210" y="2490" width="180" height="60" as="geometry"/>
                </mxCell>
                <mxCell id="305" value="o_out_valid = 1&lt;br&gt;incr_ctr = io_fire&lt;br&gt;sel_data = 0 (xg)" style="whiteSpace=wrap;html=1;fillColor=#60a917;fontColor=#ffffff;strokeColor=#2D7600;" parent="1" vertex="1">
                    <mxGeometry x="390" y="2297.5" width="120" height="45" as="geometry"/>
                </mxCell>
                <mxCell id="308" style="edgeStyle=none;html=1;exitX=0.5;exitY=1;exitDx=0;exitDy=0;entryX=0.5;entryY=0;entryDx=0;entryDy=0;" parent="1" source="306" target="301" edge="1">
                    <mxGeometry relative="1" as="geometry"/>
                </mxCell>
                <mxCell id="306" value="S_RECV_Y&lt;br&gt;2" style="ellipse;whiteSpace=wrap;html=1;" parent="1" vertex="1">
                    <mxGeometry x="210" y="2060" width="180" height="60" as="geometry"/>
                </mxCell>
                <mxCell id="309" value="o_reduce_ready = 1&lt;br&gt;wen_yg = reduce_fir" style="whiteSpace=wrap;html=1;fillColor=#60a917;fontColor=#ffffff;strokeColor=#2D7600;" parent="1" vertex="1">
                    <mxGeometry x="390" y="2067.5" width="180" height="45" as="geometry"/>
                </mxCell>
                <mxCell id="310" value="reduce_fire == 1" style="whiteSpace=wrap;html=1;fillColor=#a20025;fontColor=#ffffff;strokeColor=#6F0000;" parent="1" vertex="1">
                    <mxGeometry x="320" y="2185" width="160" height="30" as="geometry"/>
                </mxCell>
                <mxCell id="312" value="counter == 3 &amp;amp;&amp;amp;&lt;br&gt;io_fire == 1" style="whiteSpace=wrap;html=1;fillColor=#a20025;fontColor=#ffffff;strokeColor=#6F0000;" parent="1" vertex="1">
                    <mxGeometry x="320" y="2390" width="160" height="35" as="geometry"/>
                </mxCell>
                <mxCell id="315" value="o_out_valid = 1&lt;br&gt;incr_ctr = io_fire&lt;br&gt;sel_data = 1 (yg)" style="whiteSpace=wrap;html=1;fillColor=#60a917;fontColor=#ffffff;strokeColor=#2D7600;" parent="1" vertex="1">
                    <mxGeometry x="390" y="2497.5" width="120" height="45" as="geometry"/>
                </mxCell>
                <mxCell id="316" value="counter == 3 &amp;amp;&amp;amp;&lt;br&gt;io_fire == 1" style="whiteSpace=wrap;html=1;fillColor=#a20025;fontColor=#ffffff;strokeColor=#6F0000;" parent="1" vertex="1">
                    <mxGeometry x="40" y="2475" width="160" height="35" as="geometry"/>
                </mxCell>
                <mxCell id="334" value="A" style="whiteSpace=wrap;html=1;" parent="1" vertex="1">
                    <mxGeometry x="850" y="514" width="20" height="50" as="geometry"/>
                </mxCell>
                <mxCell id="416" style="edgeStyle=none;html=1;exitX=1;exitY=0.5;exitDx=0;exitDy=0;entryX=0;entryY=0.5;entryDx=0;entryDy=0;" parent="1" source="335" target="406" edge="1">
                    <mxGeometry relative="1" as="geometry">
                        <Array as="points">
                            <mxPoint x="2730" y="530"/>
                            <mxPoint x="2730" y="490"/>
                        </Array>
                    </mxGeometry>
                </mxCell>
                <mxCell id="417" style="edgeStyle=none;html=1;exitX=1;exitY=0.5;exitDx=0;exitDy=0;entryX=0.25;entryY=1;entryDx=0;entryDy=0;" parent="1" source="335" target="410" edge="1">
                    <mxGeometry relative="1" as="geometry">
                        <Array as="points">
                            <mxPoint x="2730" y="530"/>
                            <mxPoint x="2730" y="800"/>
                        </Array>
                    </mxGeometry>
                </mxCell>
                <mxCell id="418" style="edgeStyle=none;html=1;exitX=1;exitY=0.5;exitDx=0;exitDy=0;entryX=0.25;entryY=1;entryDx=0;entryDy=0;" parent="1" source="335" target="411" edge="1">
                    <mxGeometry relative="1" as="geometry">
                        <Array as="points">
                            <mxPoint x="2740" y="530"/>
                            <mxPoint x="2740" y="870"/>
                        </Array>
                    </mxGeometry>
                </mxCell>
                <mxCell id="335" value="MM1" style="whiteSpace=wrap;html=1;" parent="1" vertex="1">
                    <mxGeometry x="2440" y="494" width="90" height="66" as="geometry"/>
                </mxCell>
                <mxCell id="419" style="edgeStyle=none;html=1;exitX=1;exitY=0.5;exitDx=0;exitDy=0;entryX=0;entryY=0.5;entryDx=0;entryDy=0;" parent="1" source="336" target="407" edge="1">
                    <mxGeometry relative="1" as="geometry">
                        <Array as="points">
                            <mxPoint x="2780" y="650"/>
                            <mxPoint x="2780" y="600"/>
                        </Array>
                    </mxGeometry>
                </mxCell>
                <mxCell id="420" style="edgeStyle=none;html=1;exitX=1;exitY=0.5;exitDx=0;exitDy=0;entryX=0.5;entryY=1;entryDx=0;entryDy=0;" parent="1" source="336" target="411" edge="1">
                    <mxGeometry relative="1" as="geometry">
                        <Array as="points">
                            <mxPoint x="2780" y="650"/>
                            <mxPoint x="2780" y="890"/>
                        </Array>
                    </mxGeometry>
                </mxCell>
                <mxCell id="421" style="edgeStyle=none;html=1;exitX=1;exitY=0.5;exitDx=0;exitDy=0;entryX=0.25;entryY=1;entryDx=0;entryDy=0;" parent="1" source="336" target="412" edge="1">
                    <mxGeometry relative="1" as="geometry">
                        <Array as="points">
                            <mxPoint x="2770" y="652"/>
                            <mxPoint x="3000" y="652"/>
                            <mxPoint x="3140" y="652"/>
                            <mxPoint x="3150" y="967"/>
                        </Array>
                    </mxGeometry>
                </mxCell>
                <mxCell id="336" value="MM2" style="whiteSpace=wrap;html=1;" parent="1" vertex="1">
                    <mxGeometry x="2440" y="619" width="90" height="66" as="geometry"/>
                </mxCell>
                <mxCell id="422" style="edgeStyle=none;html=1;exitX=1;exitY=0.5;exitDx=0;exitDy=0;entryX=0.5;entryY=1;entryDx=0;entryDy=0;" parent="1" source="337" target="410" edge="1">
                    <mxGeometry relative="1" as="geometry">
                        <Array as="points">
                            <mxPoint x="2700" y="777"/>
                            <mxPoint x="2700" y="820"/>
                        </Array>
                    </mxGeometry>
                </mxCell>
                <mxCell id="423" style="edgeStyle=none;html=1;exitX=1;exitY=0.5;exitDx=0;exitDy=0;entryX=0.25;entryY=1;entryDx=0;entryDy=0;" parent="1" source="337" target="413" edge="1">
                    <mxGeometry relative="1" as="geometry">
                        <Array as="points">
                            <mxPoint x="2700" y="777"/>
                            <mxPoint x="3080" y="780"/>
                            <mxPoint x="3080" y="1040"/>
                        </Array>
                    </mxGeometry>
                </mxCell>
                <mxCell id="337" value="MM3" style="whiteSpace=wrap;html=1;" parent="1" vertex="1">
                    <mxGeometry x="2440" y="744" width="90" height="66" as="geometry"/>
                </mxCell>
                <mxCell id="357" style="edgeStyle=none;html=1;exitX=1;exitY=0.5;exitDx=0;exitDy=0;entryX=0.929;entryY=0.976;entryDx=0;entryDy=0;entryPerimeter=0;" parent="1" source="338" target="352" edge="1">
                    <mxGeometry relative="1" as="geometry">
                        <Array as="points">
                            <mxPoint x="2610" y="900"/>
                            <mxPoint x="2610" y="850"/>
                            <mxPoint x="2200" y="850"/>
                            <mxPoint x="2200" y="613"/>
                        </Array>
                    </mxGeometry>
                </mxCell>
                <mxCell id="382" style="edgeStyle=none;html=1;exitX=1;exitY=0.5;exitDx=0;exitDy=0;entryX=0;entryY=0.25;entryDx=0;entryDy=0;" parent="1" source="338" target="340" edge="1">
                    <mxGeometry relative="1" as="geometry">
                        <Array as="points">
                            <mxPoint x="2610" y="900"/>
                            <mxPoint x="2610" y="950"/>
                        </Array>
                    </mxGeometry>
                </mxCell>
                <mxCell id="403" style="edgeStyle=none;html=1;exitX=1;exitY=0.5;exitDx=0;exitDy=0;entryX=0;entryY=0.25;entryDx=0;entryDy=0;" parent="1" source="338" target="341" edge="1">
                    <mxGeometry relative="1" as="geometry">
                        <Array as="points">
                            <mxPoint x="2690" y="900"/>
                            <mxPoint x="2810" y="900"/>
                            <mxPoint x="2810" y="950"/>
                        </Array>
                    </mxGeometry>
                </mxCell>
                <mxCell id="447" style="edgeStyle=none;html=1;exitX=1;exitY=0.5;exitDx=0;exitDy=0;entryX=0.75;entryY=1;entryDx=0;entryDy=0;" parent="1" source="338" target="371" edge="1">
                    <mxGeometry relative="1" as="geometry">
                        <Array as="points">
                            <mxPoint x="2610" y="900"/>
                            <mxPoint x="2610" y="850"/>
                            <mxPoint x="2200" y="850"/>
                            <mxPoint x="2200" y="784"/>
                        </Array>
                    </mxGeometry>
                </mxCell>
                <mxCell id="338" value="ADD1" style="whiteSpace=wrap;html=1;" parent="1" vertex="1">
                    <mxGeometry x="2440" y="867" width="90" height="66" as="geometry"/>
                </mxCell>
                <mxCell id="368" style="edgeStyle=none;html=1;exitX=1;exitY=0.5;exitDx=0;exitDy=0;entryX=0.869;entryY=1.061;entryDx=0;entryDy=0;entryPerimeter=0;" parent="1" source="339" target="364" edge="1">
                    <mxGeometry relative="1" as="geometry">
                        <Array as="points">
                            <mxPoint x="2610" y="1022"/>
                            <mxPoint x="2610" y="970"/>
                            <mxPoint x="2140" y="970"/>
                            <mxPoint x="2140" y="759"/>
                        </Array>
                    </mxGeometry>
                </mxCell>
                <mxCell id="383" style="edgeStyle=none;html=1;exitX=1;exitY=0.5;exitDx=0;exitDy=0;entryX=0;entryY=0.75;entryDx=0;entryDy=0;" parent="1" source="339" target="340" edge="1">
                    <mxGeometry relative="1" as="geometry">
                        <Array as="points">
                            <mxPoint x="2610" y="1022"/>
                            <mxPoint x="2610" y="983"/>
                        </Array>
                    </mxGeometry>
                </mxCell>
                <mxCell id="428" style="edgeStyle=none;html=1;exitX=1;exitY=0.5;exitDx=0;exitDy=0;entryX=0.5;entryY=1;entryDx=0;entryDy=0;" parent="1" source="339" target="378" edge="1">
                    <mxGeometry relative="1" as="geometry">
                        <Array as="points">
                            <mxPoint x="2610" y="1020"/>
                            <mxPoint x="2610" y="970"/>
                            <mxPoint x="2170" y="970"/>
                            <mxPoint x="2170" y="840"/>
                        </Array>
                    </mxGeometry>
                </mxCell>
                <mxCell id="429" style="edgeStyle=none;html=1;exitX=1;exitY=0.5;exitDx=0;exitDy=0;entryX=0;entryY=0.5;entryDx=0;entryDy=0;" parent="1" source="339" target="347" edge="1">
                    <mxGeometry relative="1" as="geometry">
                        <Array as="points">
                            <mxPoint x="2610" y="1022"/>
                            <mxPoint x="2610" y="1120"/>
                        </Array>
                        <mxPoint x="3530" y="1133.5000000000005" as="targetPoint"/>
                    </mxGeometry>
                </mxCell>
                <mxCell id="339" value="ADD2" style="whiteSpace=wrap;html=1;" parent="1" vertex="1">
                    <mxGeometry x="2440" y="989" width="90" height="66" as="geometry"/>
                </mxCell>
                <mxCell id="424" style="edgeStyle=none;html=1;exitX=1;exitY=0.5;exitDx=0;exitDy=0;entryX=0.5;entryY=1;entryDx=0;entryDy=0;" parent="1" source="340" target="413" edge="1">
                    <mxGeometry relative="1" as="geometry">
                        <Array as="points">
                            <mxPoint x="2810" y="966"/>
                            <mxPoint x="2810" y="1060"/>
                        </Array>
                    </mxGeometry>
                </mxCell>
                <mxCell id="425" style="edgeStyle=none;html=1;exitX=1;exitY=0.5;exitDx=0;exitDy=0;entryX=0;entryY=0.5;entryDx=0;entryDy=0;" parent="1" source="340" target="408" edge="1">
                    <mxGeometry relative="1" as="geometry">
                        <Array as="points">
                            <mxPoint x="2830" y="966"/>
                            <mxPoint x="2830" y="690"/>
                        </Array>
                    </mxGeometry>
                </mxCell>
                <mxCell id="340" value="MM4" style="whiteSpace=wrap;html=1;" parent="1" vertex="1">
                    <mxGeometry x="2670" y="933" width="90" height="66" as="geometry"/>
                </mxCell>
                <mxCell id="430" style="edgeStyle=none;html=1;exitX=1;exitY=0.5;exitDx=0;exitDy=0;entryX=0.75;entryY=1;entryDx=0;entryDy=0;" parent="1" source="341" target="413" edge="1">
                    <mxGeometry relative="1" as="geometry">
                        <Array as="points">
                            <mxPoint x="3110" y="966"/>
                            <mxPoint x="3110" y="1080"/>
                        </Array>
                    </mxGeometry>
                </mxCell>
                <mxCell id="341" value="ADD3" style="whiteSpace=wrap;html=1;" parent="1" vertex="1">
                    <mxGeometry x="2910" y="933" width="90" height="66" as="geometry"/>
                </mxCell>
                <mxCell id="350" style="edgeStyle=none;html=1;exitX=1;exitY=0.5;exitDx=0;exitDy=0;entryX=0.75;entryY=1;entryDx=0;entryDy=0;" parent="1" source="342" target="348" edge="1">
                    <mxGeometry relative="1" as="geometry">
                        <Array as="points">
                            <mxPoint x="2130" y="930"/>
                            <mxPoint x="2130" y="496"/>
                        </Array>
                    </mxGeometry>
                </mxCell>
                <mxCell id="354" style="edgeStyle=none;html=1;exitX=1;exitY=0.5;exitDx=0;exitDy=0;entryX=0.5;entryY=1;entryDx=0;entryDy=0;" parent="1" source="342" target="352" edge="1">
                    <mxGeometry relative="1" as="geometry">
                        <Array as="points">
                            <mxPoint x="2130" y="930"/>
                            <mxPoint x="2130" y="572"/>
                        </Array>
                    </mxGeometry>
                </mxCell>
                <mxCell id="360" style="edgeStyle=none;html=1;exitX=1;exitY=0.5;exitDx=0;exitDy=0;entryX=0.5;entryY=1;entryDx=0;entryDy=0;" parent="1" source="342" target="358" edge="1">
                    <mxGeometry relative="1" as="geometry">
                        <Array as="points">
                            <mxPoint x="2110" y="930"/>
                            <mxPoint x="2110" y="644"/>
                        </Array>
                    </mxGeometry>
                </mxCell>
                <mxCell id="397" style="edgeStyle=none;html=1;exitX=1;exitY=0.5;exitDx=0;exitDy=0;entryX=0.5;entryY=1;entryDx=0;entryDy=0;" parent="1" source="343" target="394" edge="1">
                    <mxGeometry relative="1" as="geometry">
                        <Array as="points">
                            <mxPoint x="2170" y="1006"/>
                            <mxPoint x="2170" y="1020"/>
                        </Array>
                    </mxGeometry>
                </mxCell>
                <mxCell id="342" value="Reg1" style="whiteSpace=wrap;html=1;" parent="1" vertex="1">
                    <mxGeometry x="1980" y="910" width="60" height="40" as="geometry"/>
                </mxCell>
                <mxCell id="361" style="edgeStyle=none;html=1;exitX=1;exitY=0.5;exitDx=0;exitDy=0;entryX=0.75;entryY=1;entryDx=0;entryDy=0;" parent="1" source="343" target="358" edge="1">
                    <mxGeometry relative="1" as="geometry">
                        <Array as="points">
                            <mxPoint x="2090" y="1006"/>
                            <mxPoint x="2090" y="659"/>
                        </Array>
                    </mxGeometry>
                </mxCell>
                <mxCell id="391" style="edgeStyle=none;html=1;exitX=1;exitY=0.5;exitDx=0;exitDy=0;entryX=0.5;entryY=1;entryDx=0;entryDy=0;" parent="1" source="343" target="389" edge="1">
                    <mxGeometry relative="1" as="geometry">
                        <Array as="points">
                            <mxPoint x="2190" y="1006"/>
                            <mxPoint x="2190" y="950"/>
                        </Array>
                    </mxGeometry>
                </mxCell>
                <mxCell id="480" style="edgeStyle=none;html=1;exitX=1;exitY=0.5;exitDx=0;exitDy=0;entryX=0.5;entryY=1;entryDx=0;entryDy=0;" parent="1" source="343" target="412" edge="1">
                    <mxGeometry relative="1" as="geometry">
                        <Array as="points">
                            <mxPoint x="2380" y="1230"/>
                        </Array>
                    </mxGeometry>
                </mxCell>
                <mxCell id="343" value="Reg2" style="whiteSpace=wrap;html=1;" parent="1" vertex="1">
                    <mxGeometry x="1980" y="986" width="60" height="40" as="geometry"/>
                </mxCell>
                <mxCell id="366" style="edgeStyle=none;html=1;exitX=1;exitY=0.5;exitDx=0;exitDy=0;entryX=0.384;entryY=1.104;entryDx=0;entryDy=0;entryPerimeter=0;" parent="1" source="344" target="364" edge="1">
                    <mxGeometry relative="1" as="geometry">
                        <Array as="points">
                            <mxPoint x="2100" y="1085"/>
                            <mxPoint x="2100" y="717"/>
                        </Array>
                    </mxGeometry>
                </mxCell>
                <mxCell id="380" style="edgeStyle=none;html=1;entryX=0.75;entryY=1;entryDx=0;entryDy=0;" parent="1" source="344" target="378" edge="1">
                    <mxGeometry relative="1" as="geometry">
                        <Array as="points">
                            <mxPoint x="2210" y="1085"/>
                            <mxPoint x="2210" y="855"/>
                        </Array>
                    </mxGeometry>
                </mxCell>
                <mxCell id="386" style="edgeStyle=none;html=1;exitX=1;exitY=0.5;exitDx=0;exitDy=0;entryX=0.5;entryY=1;entryDx=0;entryDy=0;" parent="1" source="344" target="384" edge="1">
                    <mxGeometry relative="1" as="geometry">
                        <Array as="points">
                            <mxPoint x="2230" y="1085"/>
                            <mxPoint x="2230" y="880"/>
                        </Array>
                    </mxGeometry>
                </mxCell>
                <mxCell id="398" style="edgeStyle=none;html=1;exitX=1;exitY=0.5;exitDx=0;exitDy=0;entryX=0.75;entryY=1;entryDx=0;entryDy=0;" parent="1" source="344" target="394" edge="1">
                    <mxGeometry relative="1" as="geometry">
                        <Array as="points">
                            <mxPoint x="2230" y="1085"/>
                            <mxPoint x="2230" y="1034"/>
                        </Array>
                    </mxGeometry>
                </mxCell>
                <mxCell id="401" style="edgeStyle=none;html=1;exitX=1;exitY=0.5;exitDx=0;exitDy=0;entryX=0.5;entryY=1;entryDx=0;entryDy=0;" parent="1" source="344" target="395" edge="1">
                    <mxGeometry relative="1" as="geometry"/>
                </mxCell>
                <mxCell id="405" style="edgeStyle=none;html=1;exitX=1;exitY=0.5;exitDx=0;exitDy=0;entryX=0;entryY=0.75;entryDx=0;entryDy=0;" parent="1" source="344" target="341" edge="1">
                    <mxGeometry relative="1" as="geometry">
                        <Array as="points">
                            <mxPoint x="2100" y="1085"/>
                            <mxPoint x="2100" y="1140"/>
                            <mxPoint x="2580" y="1140"/>
                            <mxPoint x="2580" y="1085"/>
                            <mxPoint x="2830" y="1085"/>
                            <mxPoint x="2830" y="983"/>
                        </Array>
                    </mxGeometry>
                </mxCell>
                <mxCell id="344" value="Reg3" style="whiteSpace=wrap;html=1;" parent="1" vertex="1">
                    <mxGeometry x="1980" y="1065" width="60" height="40" as="geometry"/>
                </mxCell>
                <mxCell id="355" style="edgeStyle=none;html=1;exitX=1;exitY=0.5;exitDx=0;exitDy=0;entryX=0.75;entryY=1;entryDx=0;entryDy=0;" parent="1" source="345" target="352" edge="1">
                    <mxGeometry relative="1" as="geometry">
                        <Array as="points">
                            <mxPoint x="2100" y="1165"/>
                            <mxPoint x="2270" y="1165"/>
                            <mxPoint x="2270" y="596"/>
                        </Array>
                    </mxGeometry>
                </mxCell>
                <mxCell id="387" style="edgeStyle=none;html=1;exitX=1;exitY=0.5;exitDx=0;exitDy=0;entryX=0.75;entryY=1;entryDx=0;entryDy=0;" parent="1" source="345" target="384" edge="1">
                    <mxGeometry relative="1" as="geometry">
                        <Array as="points">
                            <mxPoint x="2270" y="1165"/>
                            <mxPoint x="2270" y="895"/>
                        </Array>
                    </mxGeometry>
                </mxCell>
                <mxCell id="392" style="edgeStyle=none;html=1;exitX=1;exitY=0.5;exitDx=0;exitDy=0;entryX=0.75;entryY=1;entryDx=0;entryDy=0;" parent="1" source="345" target="389" edge="1">
                    <mxGeometry relative="1" as="geometry">
                        <Array as="points">
                            <mxPoint x="2270" y="1165"/>
                            <mxPoint x="2270" y="965"/>
                        </Array>
                    </mxGeometry>
                </mxCell>
                <mxCell id="402" style="edgeStyle=none;html=1;exitX=1;exitY=0.5;exitDx=0;exitDy=0;entryX=0.75;entryY=1;entryDx=0;entryDy=0;" parent="1" source="345" target="395" edge="1">
                    <mxGeometry relative="1" as="geometry">
                        <Array as="points">
                            <mxPoint x="2270" y="1165"/>
                            <mxPoint x="2270" y="1100"/>
                        </Array>
                    </mxGeometry>
                </mxCell>
                <mxCell id="345" value="Reg4" style="whiteSpace=wrap;html=1;" parent="1" vertex="1">
                    <mxGeometry x="1980" y="1145" width="60" height="40" as="geometry"/>
                </mxCell>
                <mxCell id="367" style="edgeStyle=none;html=1;exitX=1;exitY=0.5;exitDx=0;exitDy=0;entryX=0.647;entryY=1.104;entryDx=0;entryDy=0;entryPerimeter=0;" parent="1" source="346" target="364" edge="1">
                    <mxGeometry relative="1" as="geometry">
                        <Array as="points">
                            <mxPoint x="2120" y="1247"/>
                            <mxPoint x="2120" y="740"/>
                        </Array>
                    </mxGeometry>
                </mxCell>
                <mxCell id="346" value="Reg5" style="whiteSpace=wrap;html=1;" parent="1" vertex="1">
                    <mxGeometry x="1980" y="1227" width="60" height="40" as="geometry"/>
                </mxCell>
                <mxCell id="347" value="Reg5" style="whiteSpace=wrap;html=1;" parent="1" vertex="1">
                    <mxGeometry x="3610" y="1125" width="60" height="40" as="geometry"/>
                </mxCell>
                <mxCell id="351" style="edgeStyle=none;html=1;exitX=0.5;exitY=0;exitDx=0;exitDy=0;entryX=0;entryY=0.25;entryDx=0;entryDy=0;" parent="1" source="348" target="335" edge="1">
                    <mxGeometry relative="1" as="geometry">
                        <Array as="points">
                            <mxPoint x="2390" y="477"/>
                            <mxPoint x="2390" y="510"/>
                        </Array>
                    </mxGeometry>
                </mxCell>
                <mxCell id="348" value="" style="shape=trapezoid;perimeter=trapezoidPerimeter;whiteSpace=wrap;html=1;fixedSize=1;direction=south;size=6;" parent="1" vertex="1">
                    <mxGeometry x="2310" y="440" width="20" height="74" as="geometry"/>
                </mxCell>
                <mxCell id="356" style="edgeStyle=none;html=1;exitX=0.5;exitY=0;exitDx=0;exitDy=0;entryX=0;entryY=0.75;entryDx=0;entryDy=0;" parent="1" source="352" target="335" edge="1">
                    <mxGeometry relative="1" as="geometry">
                        <Array as="points">
                            <mxPoint x="2390" y="572"/>
                            <mxPoint x="2390" y="544"/>
                        </Array>
                    </mxGeometry>
                </mxCell>
                <mxCell id="352" value="" style="shape=trapezoid;perimeter=trapezoidPerimeter;whiteSpace=wrap;html=1;fixedSize=1;direction=south;size=6;" parent="1" vertex="1">
                    <mxGeometry x="2310" y="524" width="20" height="96" as="geometry"/>
                </mxCell>
                <mxCell id="362" style="edgeStyle=none;html=1;exitX=0.5;exitY=0;exitDx=0;exitDy=0;entryX=0.015;entryY=0.339;entryDx=0;entryDy=0;entryPerimeter=0;" parent="1" source="358" target="336" edge="1">
                    <mxGeometry relative="1" as="geometry"/>
                </mxCell>
                <mxCell id="358" value="" style="shape=trapezoid;perimeter=trapezoidPerimeter;whiteSpace=wrap;html=1;fixedSize=1;direction=south;size=6;" parent="1" vertex="1">
                    <mxGeometry x="2160" y="614" width="20" height="60" as="geometry"/>
                </mxCell>
                <mxCell id="369" style="edgeStyle=none;html=1;exitX=0.5;exitY=0;exitDx=0;exitDy=0;entryX=0;entryY=0.75;entryDx=0;entryDy=0;" parent="1" source="364" target="336" edge="1">
                    <mxGeometry relative="1" as="geometry">
                        <Array as="points">
                            <mxPoint x="2340" y="727"/>
                            <mxPoint x="2340" y="670"/>
                        </Array>
                    </mxGeometry>
                </mxCell>
                <mxCell id="364" value="" style="shape=trapezoid;perimeter=trapezoidPerimeter;whiteSpace=wrap;html=1;fixedSize=1;direction=south;size=6;" parent="1" vertex="1">
                    <mxGeometry x="2160" y="684" width="20" height="86" as="geometry"/>
                </mxCell>
                <mxCell id="376" style="edgeStyle=none;html=1;exitX=0.5;exitY=0;exitDx=0;exitDy=0;entryX=0;entryY=0.25;entryDx=0;entryDy=0;" parent="1" source="371" target="337" edge="1">
                    <mxGeometry relative="1" as="geometry">
                        <Array as="points">
                            <mxPoint x="2370" y="770"/>
                            <mxPoint x="2370" y="760"/>
                        </Array>
                    </mxGeometry>
                </mxCell>
                <mxCell id="371" value="" style="shape=trapezoid;perimeter=trapezoidPerimeter;whiteSpace=wrap;html=1;fixedSize=1;direction=south;size=6;" parent="1" vertex="1">
                    <mxGeometry x="2240" y="739" width="20" height="60" as="geometry"/>
                </mxCell>
                <mxCell id="373" value="d" style="text;strokeColor=none;align=center;fillColor=none;html=1;verticalAlign=middle;whiteSpace=wrap;rounded=0;" parent="1" vertex="1">
                    <mxGeometry x="2230" y="754" width="10" height="30" as="geometry"/>
                </mxCell>
                <mxCell id="381" style="edgeStyle=none;html=1;exitX=0.5;exitY=0;exitDx=0;exitDy=0;entryX=0;entryY=0.75;entryDx=0;entryDy=0;" parent="1" source="378" target="337" edge="1">
                    <mxGeometry relative="1" as="geometry">
                        <Array as="points">
                            <mxPoint x="2390" y="840"/>
                            <mxPoint x="2390" y="794"/>
                        </Array>
                    </mxGeometry>
                </mxCell>
                <mxCell id="378" value="" style="shape=trapezoid;perimeter=trapezoidPerimeter;whiteSpace=wrap;html=1;fixedSize=1;direction=south;size=6;" parent="1" vertex="1">
                    <mxGeometry x="2240" y="810" width="20" height="60" as="geometry"/>
                </mxCell>
                <mxCell id="388" style="edgeStyle=none;html=1;exitX=0.5;exitY=0;exitDx=0;exitDy=0;entryX=0;entryY=0.25;entryDx=0;entryDy=0;" parent="1" source="384" target="338" edge="1">
                    <mxGeometry relative="1" as="geometry">
                        <Array as="points">
                            <mxPoint x="2390" y="880"/>
                            <mxPoint x="2390" y="884"/>
                        </Array>
                    </mxGeometry>
                </mxCell>
                <mxCell id="384" value="" style="shape=trapezoid;perimeter=trapezoidPerimeter;whiteSpace=wrap;html=1;fixedSize=1;direction=south;size=6;" parent="1" vertex="1">
                    <mxGeometry x="2300" y="850" width="20" height="60" as="geometry"/>
                </mxCell>
                <mxCell id="393" style="edgeStyle=none;html=1;exitX=0.5;exitY=0;exitDx=0;exitDy=0;entryX=0;entryY=0.75;entryDx=0;entryDy=0;" parent="1" source="389" target="338" edge="1">
                    <mxGeometry relative="1" as="geometry">
                        <Array as="points">
                            <mxPoint x="2390" y="950"/>
                            <mxPoint x="2390" y="917"/>
                        </Array>
                    </mxGeometry>
                </mxCell>
                <mxCell id="389" value="" style="shape=trapezoid;perimeter=trapezoidPerimeter;whiteSpace=wrap;html=1;fixedSize=1;direction=south;size=6;" parent="1" vertex="1">
                    <mxGeometry x="2300" y="920" width="20" height="60" as="geometry"/>
                </mxCell>
                <mxCell id="399" style="edgeStyle=none;html=1;exitX=0.5;exitY=0;exitDx=0;exitDy=0;entryX=0;entryY=0.25;entryDx=0;entryDy=0;" parent="1" source="394" target="339" edge="1">
                    <mxGeometry relative="1" as="geometry">
                        <Array as="points">
                            <mxPoint x="2370" y="1020"/>
                            <mxPoint x="2370" y="1006"/>
                        </Array>
                    </mxGeometry>
                </mxCell>
                <mxCell id="394" value="" style="shape=trapezoid;perimeter=trapezoidPerimeter;whiteSpace=wrap;html=1;fixedSize=1;direction=south;size=6;" parent="1" vertex="1">
                    <mxGeometry x="2300" y="989" width="20" height="60" as="geometry"/>
                </mxCell>
                <mxCell id="462" style="edgeStyle=none;html=1;exitX=0.5;exitY=0;exitDx=0;exitDy=0;entryX=0;entryY=0.75;entryDx=0;entryDy=0;" parent="1" source="395" target="339" edge="1">
                    <mxGeometry relative="1" as="geometry">
                        <Array as="points">
                            <mxPoint x="2380" y="1085"/>
                            <mxPoint x="2380" y="1040"/>
                        </Array>
                    </mxGeometry>
                </mxCell>
                <mxCell id="395" value="" style="shape=trapezoid;perimeter=trapezoidPerimeter;whiteSpace=wrap;html=1;fixedSize=1;direction=south;size=6;" parent="1" vertex="1">
                    <mxGeometry x="2300" y="1055" width="20" height="60" as="geometry"/>
                </mxCell>
                <mxCell id="406" value="X3" style="whiteSpace=wrap;html=1;" parent="1" vertex="1">
                    <mxGeometry x="3630" y="460" width="40" height="40" as="geometry"/>
                </mxCell>
                <mxCell id="407" value="Y3" style="whiteSpace=wrap;html=1;" parent="1" vertex="1">
                    <mxGeometry x="3630" y="564" width="40" height="40" as="geometry"/>
                </mxCell>
                <mxCell id="408" value="Z3" style="whiteSpace=wrap;html=1;" parent="1" vertex="1">
                    <mxGeometry x="3630" y="672.5" width="40" height="40" as="geometry"/>
                </mxCell>
                <mxCell id="475" style="edgeStyle=none;html=1;exitX=0.5;exitY=0;exitDx=0;exitDy=0;entryX=0;entryY=0.5;entryDx=0;entryDy=0;" parent="1" source="410" target="168" edge="1">
                    <mxGeometry relative="1" as="geometry"/>
                </mxCell>
                <mxCell id="410" value="" style="shape=trapezoid;perimeter=trapezoidPerimeter;whiteSpace=wrap;html=1;fixedSize=1;direction=south;size=6;" parent="1" vertex="1">
                    <mxGeometry x="3530" y="784" width="20" height="74" as="geometry"/>
                </mxCell>
                <mxCell id="476" style="edgeStyle=none;html=1;exitX=0.5;exitY=0;exitDx=0;exitDy=0;entryX=0;entryY=0.5;entryDx=0;entryDy=0;" parent="1" source="411" target="169" edge="1">
                    <mxGeometry relative="1" as="geometry"/>
                </mxCell>
                <mxCell id="411" value="" style="shape=trapezoid;perimeter=trapezoidPerimeter;whiteSpace=wrap;html=1;fixedSize=1;direction=south;size=6;" parent="1" vertex="1">
                    <mxGeometry x="3530" y="865" width="20" height="74" as="geometry"/>
                </mxCell>
                <mxCell id="477" style="edgeStyle=none;html=1;exitX=0.5;exitY=0;exitDx=0;exitDy=0;entryX=0;entryY=0.5;entryDx=0;entryDy=0;" parent="1" source="412" target="170" edge="1">
                    <mxGeometry relative="1" as="geometry"/>
                </mxCell>
                <mxCell id="412" value="" style="shape=trapezoid;perimeter=trapezoidPerimeter;whiteSpace=wrap;html=1;fixedSize=1;direction=south;size=6;" parent="1" vertex="1">
                    <mxGeometry x="3530" y="948" width="20" height="74" as="geometry"/>
                </mxCell>
                <mxCell id="478" style="edgeStyle=none;html=1;exitX=0.5;exitY=0;exitDx=0;exitDy=0;entryX=0;entryY=0.5;entryDx=0;entryDy=0;" parent="1" source="413" target="171" edge="1">
                    <mxGeometry relative="1" as="geometry"/>
                </mxCell>
                <mxCell id="413" value="" style="shape=trapezoid;perimeter=trapezoidPerimeter;whiteSpace=wrap;html=1;fixedSize=1;direction=south;size=6;" parent="1" vertex="1">
                    <mxGeometry x="3530" y="1031" width="20" height="74" as="geometry"/>
                </mxCell>
                <mxCell id="431" value="x1" style="text;strokeColor=none;align=center;fillColor=none;html=1;verticalAlign=middle;whiteSpace=wrap;rounded=0;" parent="1" vertex="1">
                    <mxGeometry x="2260" y="444" width="30" height="30" as="geometry"/>
                </mxCell>
                <mxCell id="432" value="add1" style="text;strokeColor=none;align=center;fillColor=none;html=1;verticalAlign=middle;whiteSpace=wrap;rounded=0;" parent="1" vertex="1">
                    <mxGeometry x="2275" y="604" width="30" height="30" as="geometry"/>
                </mxCell>
                <mxCell id="434" value="reg1" style="text;strokeColor=none;align=center;fillColor=none;html=1;verticalAlign=middle;whiteSpace=wrap;rounded=0;" parent="1" vertex="1">
                    <mxGeometry x="2245" y="484" width="60" height="30" as="geometry"/>
                </mxCell>
                <mxCell id="435" value="x2" style="text;strokeColor=none;align=center;fillColor=none;html=1;verticalAlign=middle;whiteSpace=wrap;rounded=0;" parent="1" vertex="1">
                    <mxGeometry x="2250" y="535" width="60" height="30" as="geometry"/>
                </mxCell>
                <mxCell id="436" value="reg1" style="text;strokeColor=none;align=center;fillColor=none;html=1;verticalAlign=middle;whiteSpace=wrap;rounded=0;" parent="1" vertex="1">
                    <mxGeometry x="2265" y="559" width="30" height="30" as="geometry"/>
                </mxCell>
                <mxCell id="437" value="reg4" style="text;strokeColor=none;align=center;fillColor=none;html=1;verticalAlign=middle;whiteSpace=wrap;rounded=0;" parent="1" vertex="1">
                    <mxGeometry x="2255" y="584" width="60" height="30" as="geometry"/>
                </mxCell>
                <mxCell id="438" value="y1" style="text;strokeColor=none;align=center;fillColor=none;html=1;verticalAlign=middle;whiteSpace=wrap;rounded=0;" parent="1" vertex="1">
                    <mxGeometry x="2110" y="614" width="60" height="30" as="geometry"/>
                </mxCell>
                <mxCell id="439" value="reg1" style="text;strokeColor=none;align=center;fillColor=none;html=1;verticalAlign=middle;whiteSpace=wrap;rounded=0;" parent="1" vertex="1">
                    <mxGeometry x="2110" y="630" width="60" height="30" as="geometry"/>
                </mxCell>
                <mxCell id="440" value="reg2" style="text;strokeColor=none;align=center;fillColor=none;html=1;verticalAlign=middle;whiteSpace=wrap;rounded=0;" parent="1" vertex="1">
                    <mxGeometry x="2110" y="649" width="60" height="30" as="geometry"/>
                </mxCell>
                <mxCell id="441" value="y2" style="text;strokeColor=none;align=center;fillColor=none;html=1;verticalAlign=middle;whiteSpace=wrap;rounded=0;" parent="1" vertex="1">
                    <mxGeometry x="2110" y="685" width="60" height="30" as="geometry"/>
                </mxCell>
                <mxCell id="442" value="reg3" style="text;strokeColor=none;align=center;fillColor=none;html=1;verticalAlign=middle;whiteSpace=wrap;rounded=0;" parent="1" vertex="1">
                    <mxGeometry x="2110" y="704" width="60" height="30" as="geometry"/>
                </mxCell>
                <mxCell id="443" value="reg5" style="text;strokeColor=none;align=center;fillColor=none;html=1;verticalAlign=middle;whiteSpace=wrap;rounded=0;" parent="1" vertex="1">
                    <mxGeometry x="2110" y="724" width="60" height="30" as="geometry"/>
                </mxCell>
                <mxCell id="444" value="add2" style="text;strokeColor=none;align=center;fillColor=none;html=1;verticalAlign=middle;whiteSpace=wrap;rounded=0;" parent="1" vertex="1">
                    <mxGeometry x="2120" y="754" width="60" height="30" as="geometry"/>
                </mxCell>
                <mxCell id="445" value="z1" style="text;strokeColor=none;align=center;fillColor=none;html=1;verticalAlign=middle;whiteSpace=wrap;rounded=0;" parent="1" vertex="1">
                    <mxGeometry x="2195" y="734" width="60" height="30" as="geometry"/>
                </mxCell>
                <mxCell id="448" value="add1" style="text;strokeColor=none;align=center;fillColor=none;html=1;verticalAlign=middle;whiteSpace=wrap;rounded=0;" parent="1" vertex="1">
                    <mxGeometry x="2215" y="774" width="30" height="30" as="geometry"/>
                </mxCell>
                <mxCell id="449" value="z2" style="text;strokeColor=none;align=center;fillColor=none;html=1;verticalAlign=middle;whiteSpace=wrap;rounded=0;" parent="1" vertex="1">
                    <mxGeometry x="2215" y="802.5" width="20" height="30" as="geometry"/>
                </mxCell>
                <mxCell id="451" value="reg3" style="text;strokeColor=none;align=center;fillColor=none;html=1;verticalAlign=middle;whiteSpace=wrap;rounded=0;" parent="1" vertex="1">
                    <mxGeometry x="2210" y="842" width="20" height="30" as="geometry"/>
                </mxCell>
                <mxCell id="452" value="add2" style="text;strokeColor=none;align=center;fillColor=none;html=1;verticalAlign=middle;whiteSpace=wrap;rounded=0;" parent="1" vertex="1">
                    <mxGeometry x="2205" y="828" width="30" height="30" as="geometry"/>
                </mxCell>
                <mxCell id="453" value="x1" style="text;strokeColor=none;align=center;fillColor=none;html=1;verticalAlign=middle;whiteSpace=wrap;rounded=0;" parent="1" vertex="1">
                    <mxGeometry x="2255" y="844" width="60" height="30" as="geometry"/>
                </mxCell>
                <mxCell id="454" value="reg3" style="text;strokeColor=none;align=center;fillColor=none;html=1;verticalAlign=middle;whiteSpace=wrap;rounded=0;" parent="1" vertex="1">
                    <mxGeometry x="2270" y="858" width="30" height="30" as="geometry"/>
                </mxCell>
                <mxCell id="455" value="reg4" style="text;strokeColor=none;align=center;fillColor=none;html=1;verticalAlign=middle;whiteSpace=wrap;rounded=0;" parent="1" vertex="1">
                    <mxGeometry x="2270" y="874" width="30" height="30" as="geometry"/>
                </mxCell>
                <mxCell id="456" value="y1" style="text;strokeColor=none;align=center;fillColor=none;html=1;verticalAlign=middle;whiteSpace=wrap;rounded=0;" parent="1" vertex="1">
                    <mxGeometry x="2275" y="910" width="20" height="30" as="geometry"/>
                </mxCell>
                <mxCell id="457" value="reg2" style="text;strokeColor=none;align=center;fillColor=none;html=1;verticalAlign=middle;whiteSpace=wrap;rounded=0;" parent="1" vertex="1">
                    <mxGeometry x="2275" y="926" width="20" height="30" as="geometry"/>
                </mxCell>
                <mxCell id="458" value="reg4" style="text;strokeColor=none;align=center;fillColor=none;html=1;verticalAlign=middle;whiteSpace=wrap;rounded=0;" parent="1" vertex="1">
                    <mxGeometry x="2270" y="940" width="30" height="30" as="geometry"/>
                </mxCell>
                <mxCell id="459" value="x2" style="text;strokeColor=none;align=center;fillColor=none;html=1;verticalAlign=middle;whiteSpace=wrap;rounded=0;" parent="1" vertex="1">
                    <mxGeometry x="2275" y="980" width="20" height="30" as="geometry"/>
                </mxCell>
                <mxCell id="460" value="reg2" style="text;strokeColor=none;align=center;fillColor=none;html=1;verticalAlign=middle;whiteSpace=wrap;rounded=0;" parent="1" vertex="1">
                    <mxGeometry x="2270" y="996" width="30" height="30" as="geometry"/>
                </mxCell>
                <mxCell id="461" value="reg3" style="text;strokeColor=none;align=center;fillColor=none;html=1;verticalAlign=middle;whiteSpace=wrap;rounded=0;" parent="1" vertex="1">
                    <mxGeometry x="2270" y="1010" width="30" height="30" as="geometry"/>
                </mxCell>
                <mxCell id="463" value="y2" style="text;strokeColor=none;align=center;fillColor=none;html=1;verticalAlign=middle;whiteSpace=wrap;rounded=0;" parent="1" vertex="1">
                    <mxGeometry x="2270" y="1049" width="20" height="30" as="geometry"/>
                </mxCell>
                <mxCell id="464" value="reg3" style="text;strokeColor=none;align=center;fillColor=none;html=1;verticalAlign=middle;whiteSpace=wrap;rounded=0;" parent="1" vertex="1">
                    <mxGeometry x="2265" y="1062" width="30" height="30" as="geometry"/>
                </mxCell>
                <mxCell id="465" value="reg4" style="text;strokeColor=none;align=center;fillColor=none;html=1;verticalAlign=middle;whiteSpace=wrap;rounded=0;" parent="1" vertex="1">
                    <mxGeometry x="2270" y="1089" width="30" height="30" as="geometry"/>
                </mxCell>
                <mxCell id="466" value="mm3" style="text;strokeColor=none;align=center;fillColor=none;html=1;verticalAlign=middle;whiteSpace=wrap;rounded=0;" parent="1" vertex="1">
                    <mxGeometry x="3470" y="798" width="60" height="30" as="geometry"/>
                </mxCell>
                <mxCell id="467" value="mm1" style="text;strokeColor=none;align=center;fillColor=none;html=1;verticalAlign=middle;whiteSpace=wrap;rounded=0;" parent="1" vertex="1">
                    <mxGeometry x="3470" y="780" width="60" height="30" as="geometry"/>
                </mxCell>
                <mxCell id="468" value="mm1" style="text;strokeColor=none;align=center;fillColor=none;html=1;verticalAlign=middle;whiteSpace=wrap;rounded=0;" parent="1" vertex="1">
                    <mxGeometry x="3485" y="858" width="30" height="30" as="geometry"/>
                </mxCell>
                <mxCell id="469" value="mm2" style="text;strokeColor=none;align=center;fillColor=none;html=1;verticalAlign=middle;whiteSpace=wrap;rounded=0;" parent="1" vertex="1">
                    <mxGeometry x="3470" y="880" width="60" height="30" as="geometry"/>
                </mxCell>
                <mxCell id="470" value="mm2" style="text;strokeColor=none;align=center;fillColor=none;html=1;verticalAlign=middle;whiteSpace=wrap;rounded=0;" parent="1" vertex="1">
                    <mxGeometry x="3470" y="948" width="60" height="30" as="geometry"/>
                </mxCell>
                <mxCell id="471" value="mm3" style="text;strokeColor=none;align=center;fillColor=none;html=1;verticalAlign=middle;whiteSpace=wrap;rounded=0;" parent="1" vertex="1">
                    <mxGeometry x="3470" y="1025" width="60" height="30" as="geometry"/>
                </mxCell>
                <mxCell id="472" value="mm4" style="text;strokeColor=none;align=center;fillColor=none;html=1;verticalAlign=middle;whiteSpace=wrap;rounded=0;" parent="1" vertex="1">
                    <mxGeometry x="3470" y="1045" width="60" height="30" as="geometry"/>
                </mxCell>
                <mxCell id="473" value="add3" style="text;strokeColor=none;align=center;fillColor=none;html=1;verticalAlign=middle;whiteSpace=wrap;rounded=0;" parent="1" vertex="1">
                    <mxGeometry x="3470" y="1065" width="60" height="30" as="geometry"/>
                </mxCell>
                <mxCell id="474" value="add2" style="text;strokeColor=none;align=center;fillColor=none;html=1;verticalAlign=middle;whiteSpace=wrap;rounded=0;" parent="1" vertex="1">
                    <mxGeometry x="3480" y="1110" width="60" height="30" as="geometry"/>
                </mxCell>
                <mxCell id="481" value="reg2" style="text;strokeColor=none;align=center;fillColor=none;html=1;verticalAlign=middle;whiteSpace=wrap;rounded=0;" parent="1" vertex="1">
                    <mxGeometry x="3450" y="965" width="60" height="30" as="geometry"/>
                </mxCell>
                <mxCell id="484" value="i_rst == 0" style="whiteSpace=wrap;html=1;fillColor=#60a917;fontColor=#ffffff;strokeColor=#2D7600;" parent="1" vertex="1">
                    <mxGeometry x="883" y="-660" width="120" height="30" as="geometry"/>
                </mxCell>
                <mxCell id="485" value="X" style="whiteSpace=wrap;html=1;fillColor=#a20025;fontColor=#ffffff;strokeColor=#6F0000;" parent="1" vertex="1">
                    <mxGeometry x="883" y="-630" width="120" height="30" as="geometry"/>
                </mxCell>
                <mxCell id="486" style="edgeStyle=none;html=1;exitX=1;exitY=0.5;exitDx=0;exitDy=0;entryX=0.5;entryY=0;entryDx=0;entryDy=0;" parent="1" source="92" target="92" edge="1">
                    <mxGeometry relative="1" as="geometry">
                        <Array as="points">
                            <mxPoint x="1083" y="-700"/>
                            <mxPoint x="1083" y="-740"/>
                        </Array>
                    </mxGeometry>
                </mxCell>
                <mxCell id="487" value="i_rst == 1" style="whiteSpace=wrap;html=1;fillColor=#60a917;fontColor=#ffffff;strokeColor=#2D7600;" parent="1" vertex="1">
                    <mxGeometry x="1093" y="-750" width="120" height="30" as="geometry"/>
                </mxCell>
                <mxCell id="488" value="X" style="whiteSpace=wrap;html=1;fillColor=#a20025;fontColor=#ffffff;strokeColor=#6F0000;" parent="1" vertex="1">
                    <mxGeometry x="1093" y="-720" width="120" height="30" as="geometry"/>
                </mxCell>
                <mxCell id="495" value="" style="edgeStyle=none;orthogonalLoop=1;jettySize=auto;html=1;entryX=0.5;entryY=0;entryDx=0;entryDy=0;" parent="1" target="4" edge="1">
                    <mxGeometry width="80" relative="1" as="geometry">
                        <mxPoint x="305" y="260" as="sourcePoint"/>
                        <mxPoint x="460" y="270" as="targetPoint"/>
                        <Array as="points"/>
                    </mxGeometry>
                </mxCell>
                <mxCell id="496" value="wen_pointR" style="text;strokeColor=none;align=center;fillColor=none;html=1;verticalAlign=middle;whiteSpace=wrap;rounded=0;" parent="1" vertex="1">
                    <mxGeometry x="275" y="220" width="60" height="30" as="geometry"/>
                </mxCell>
                <mxCell id="497" value="" style="edgeStyle=none;orthogonalLoop=1;jettySize=auto;html=1;entryX=0.5;entryY=0;entryDx=0;entryDy=0;" parent="1" target="8" edge="1">
                    <mxGeometry width="80" relative="1" as="geometry">
                        <mxPoint x="110" y="280" as="sourcePoint"/>
                        <mxPoint x="119.28999999999999" y="514" as="targetPoint"/>
                        <Array as="points">
                            <mxPoint x="110" y="690"/>
                            <mxPoint x="300" y="690"/>
                        </Array>
                    </mxGeometry>
                </mxCell>
                <mxCell id="498" value="wen_pointP" style="text;strokeColor=none;align=center;fillColor=none;html=1;verticalAlign=middle;whiteSpace=wrap;rounded=0;" parent="1" vertex="1">
                    <mxGeometry x="80" y="250" width="60" height="30" as="geometry"/>
                </mxCell>
                <mxCell id="499" value="" style="edgeStyle=none;orthogonalLoop=1;jettySize=auto;html=1;exitX=0.322;exitY=1.006;exitDx=0;exitDy=0;entryX=0.899;entryY=0.995;entryDx=0;entryDy=0;entryPerimeter=0;exitPerimeter=0;" parent="1" source="67" target="7" edge="1">
                    <mxGeometry width="80" relative="1" as="geometry">
                        <mxPoint x="610" y="1050" as="sourcePoint"/>
                        <mxPoint x="690" y="1050" as="targetPoint"/>
                        <Array as="points"/>
                    </mxGeometry>
                </mxCell>
                <mxCell id="500" value="wen_M" style="text;strokeColor=none;align=center;fillColor=none;html=1;verticalAlign=middle;whiteSpace=wrap;rounded=0;" parent="1" vertex="1">
                    <mxGeometry x="520" y="1032" width="60" height="30" as="geometry"/>
                </mxCell>
                <mxCell id="509" style="edgeStyle=none;html=1;exitX=0;exitY=0.5;exitDx=0;exitDy=0;entryX=1;entryY=0.5;entryDx=0;entryDy=0;" parent="1" source="501" target="502" edge="1">
                    <mxGeometry relative="1" as="geometry"/>
                </mxCell>
                <mxCell id="501" value="S_PTADD3&lt;br&gt;6" style="ellipse;whiteSpace=wrap;html=1;" parent="1" vertex="1">
                    <mxGeometry x="-20" y="-60" width="150" height="80" as="geometry"/>
                </mxCell>
                <mxCell id="515" style="edgeStyle=none;html=1;exitX=0;exitY=0;exitDx=0;exitDy=0;entryX=0;entryY=1;entryDx=0;entryDy=0;" parent="1" source="502" target="516" edge="1">
                    <mxGeometry relative="1" as="geometry">
                        <mxPoint x="-660" y="-19.71428571428578" as="targetPoint"/>
                    </mxGeometry>
                </mxCell>
                <mxCell id="502" value="S_PTADD4&lt;br&gt;7" style="ellipse;whiteSpace=wrap;html=1;" parent="1" vertex="1">
                    <mxGeometry x="-420" y="-60" width="150" height="80" as="geometry"/>
                </mxCell>
                <mxCell id="504" value="stage1_done == 1" style="whiteSpace=wrap;html=1;fillColor=#60a917;fontColor=#ffffff;strokeColor=#2D7600;" parent="1" vertex="1">
                    <mxGeometry x="580" y="-50" width="120" height="30" as="geometry"/>
                </mxCell>
                <mxCell id="505" value="sel_point = 0&lt;br&gt;stage 1 signals&amp;nbsp;&lt;br&gt;" style="whiteSpace=wrap;html=1;fillColor=#a20025;fontColor=#ffffff;strokeColor=#6F0000;" parent="1" vertex="1">
                    <mxGeometry x="580" y="-20" width="120" height="50" as="geometry"/>
                </mxCell>
                <mxCell id="506" value="stage2_done == 1" style="whiteSpace=wrap;html=1;fillColor=#60a917;fontColor=#ffffff;strokeColor=#2D7600;" parent="1" vertex="1">
                    <mxGeometry x="180" y="-50" width="120" height="30" as="geometry"/>
                </mxCell>
                <mxCell id="507" value="stage 2 signals" style="whiteSpace=wrap;html=1;fillColor=#a20025;fontColor=#ffffff;strokeColor=#6F0000;" parent="1" vertex="1">
                    <mxGeometry x="180" y="-20" width="120" height="40" as="geometry"/>
                </mxCell>
                <mxCell id="510" value="stage3_done == 1" style="whiteSpace=wrap;html=1;fillColor=#60a917;fontColor=#ffffff;strokeColor=#2D7600;" parent="1" vertex="1">
                    <mxGeometry x="-200" y="-50" width="120" height="30" as="geometry"/>
                </mxCell>
                <mxCell id="511" value="stage 3 signals" style="whiteSpace=wrap;html=1;fillColor=#a20025;fontColor=#ffffff;strokeColor=#6F0000;" parent="1" vertex="1">
                    <mxGeometry x="-200" y="-20" width="120" height="40" as="geometry"/>
                </mxCell>
                <mxCell id="512" value="sel_point" style="text;strokeColor=none;align=center;fillColor=none;html=1;verticalAlign=middle;whiteSpace=wrap;rounded=0;" parent="1" vertex="1">
                    <mxGeometry x="390" y="894" width="60" height="30" as="geometry"/>
                </mxCell>
                <mxCell id="513" value="stage4_done == 1" style="whiteSpace=wrap;html=1;fillColor=#60a917;fontColor=#ffffff;strokeColor=#2D7600;" parent="1" vertex="1">
                    <mxGeometry x="-580" y="-160" width="170" height="30" as="geometry"/>
                </mxCell>
                <mxCell id="514" value="stage 4 signals&lt;br&gt;wen_pointR = stage4_done" style="whiteSpace=wrap;html=1;fillColor=#a20025;fontColor=#ffffff;strokeColor=#6F0000;" parent="1" vertex="1">
                    <mxGeometry x="-580" y="-130" width="170" height="50" as="geometry"/>
                </mxCell>
                <mxCell id="517" style="edgeStyle=none;html=1;exitX=1;exitY=0.5;exitDx=0;exitDy=0;entryX=1;entryY=0;entryDx=0;entryDy=0;" parent="1" source="516" target="95" edge="1">
                    <mxGeometry relative="1" as="geometry">
                        <Array as="points">
                            <mxPoint x="90" y="-230"/>
                            <mxPoint x="90" y="-170"/>
                            <mxPoint x="498" y="-170"/>
                        </Array>
                    </mxGeometry>
                </mxCell>
                <mxCell id="521" style="edgeStyle=none;html=1;exitX=1;exitY=0.5;exitDx=0;exitDy=0;entryX=0;entryY=0;entryDx=0;entryDy=0;" parent="1" source="516" target="94" edge="1">
                    <mxGeometry relative="1" as="geometry">
                        <Array as="points">
                            <mxPoint x="640" y="-230"/>
                            <mxPoint x="640" y="-120"/>
                            <mxPoint x="762" y="-120"/>
                        </Array>
                    </mxGeometry>
                </mxCell>
                <mxCell id="516" value="S_CHECK_M&lt;br&gt;8" style="ellipse;whiteSpace=wrap;html=1;" parent="1" vertex="1">
                    <mxGeometry x="-420" y="-270" width="150" height="80" as="geometry"/>
                </mxCell>
                <mxCell id="518" value="check_flag == 0 &amp;amp;&amp;amp; M[counter]==1 &amp;amp;&amp;amp; stage1_done" style="whiteSpace=wrap;html=1;fillColor=#60a917;fontColor=#ffffff;strokeColor=#2D7600;" parent="1" vertex="1">
                    <mxGeometry x="140" y="-180" width="180" height="30" as="geometry"/>
                </mxCell>
                <mxCell id="519" value="sel_point = 1&lt;br&gt;set_check_flag = 1&lt;br&gt;stage 1 signals" style="whiteSpace=wrap;html=1;fillColor=#a20025;fontColor=#ffffff;strokeColor=#6F0000;" parent="1" vertex="1">
                    <mxGeometry x="140" y="-150" width="180" height="70" as="geometry"/>
                </mxCell>
                <mxCell id="522" value="Other" style="whiteSpace=wrap;html=1;fillColor=#60a917;fontColor=#ffffff;strokeColor=#2D7600;" parent="1" vertex="1">
                    <mxGeometry x="350" y="-270" width="120" height="30" as="geometry"/>
                </mxCell>
                <mxCell id="523" value="incr_counter = 1&lt;br&gt;rst_ckeck_flag = 1" style="whiteSpace=wrap;html=1;fillColor=#a20025;fontColor=#ffffff;strokeColor=#6F0000;" parent="1" vertex="1">
                    <mxGeometry x="350" y="-240" width="120" height="50" as="geometry"/>
                </mxCell>
                <mxCell id="576" style="edgeStyle=none;html=1;exitX=1;exitY=1;exitDx=0;exitDy=0;entryX=1;entryY=0;entryDx=0;entryDy=0;" parent="1" source="524" target="574" edge="1">
                    <mxGeometry relative="1" as="geometry"/>
                </mxCell>
                <mxCell id="524" value="S_DONE_Z&lt;br&gt;9" style="ellipse;whiteSpace=wrap;html=1;" parent="1" vertex="1">
                    <mxGeometry x="740" y="180" width="150" height="80" as="geometry"/>
                </mxCell>
                <mxCell id="526" value="counter == 255" style="whiteSpace=wrap;html=1;fillColor=#60a917;fontColor=#ffffff;strokeColor=#2D7600;" parent="1" vertex="1">
                    <mxGeometry x="875" y="70" width="120" height="30" as="geometry"/>
                </mxCell>
                <mxCell id="527" value="X" style="whiteSpace=wrap;html=1;fillColor=#a20025;fontColor=#ffffff;strokeColor=#6F0000;" parent="1" vertex="1">
                    <mxGeometry x="875" y="100" width="120" height="50" as="geometry"/>
                </mxCell>
                <mxCell id="532" value="reduce_fire == 1" style="whiteSpace=wrap;html=1;fillColor=#60a917;fontColor=#ffffff;strokeColor=#2D7600;" parent="1" vertex="1">
                    <mxGeometry x="875" y="270" width="110" height="30" as="geometry"/>
                </mxCell>
                <mxCell id="533" value="o_reduce_valid = 1" style="whiteSpace=wrap;html=1;fillColor=#a20025;fontColor=#ffffff;strokeColor=#6F0000;" parent="1" vertex="1">
                    <mxGeometry x="890" y="209.38" width="160" height="21.25" as="geometry"/>
                </mxCell>
                <mxCell id="536" style="edgeStyle=none;html=1;exitX=0.5;exitY=1;exitDx=0;exitDy=0;entryX=0.5;entryY=0;entryDx=0;entryDy=0;" parent="1" source="534" target="306" edge="1">
                    <mxGeometry relative="1" as="geometry"/>
                </mxCell>
                <mxCell id="534" value="S_RECV_X&lt;br&gt;1" style="ellipse;whiteSpace=wrap;html=1;" parent="1" vertex="1">
                    <mxGeometry x="210" y="1920" width="180" height="60" as="geometry"/>
                </mxCell>
                <mxCell id="537" value="o_reduce_ready = 1&lt;br&gt;wen_xg = reduce_fire" style="whiteSpace=wrap;html=1;fillColor=#60a917;fontColor=#ffffff;strokeColor=#2D7600;" parent="1" vertex="1">
                    <mxGeometry x="390" y="1925" width="180" height="45" as="geometry"/>
                </mxCell>
                <mxCell id="538" value="reduce_fire == 1" style="whiteSpace=wrap;html=1;fillColor=#a20025;fontColor=#ffffff;strokeColor=#6F0000;" parent="1" vertex="1">
                    <mxGeometry x="300" y="2000" width="160" height="30" as="geometry"/>
                </mxCell>
                <mxCell id="544" value="o_in_ready = 1&lt;br&gt;wen_M = io_fire&lt;br&gt;incr_ctr = io_fire" style="whiteSpace=wrap;html=1;fillColor=#a20025;fontColor=#ffffff;strokeColor=#6F0000;" parent="1" vertex="1">
                    <mxGeometry x="908" y="-580" width="120" height="45" as="geometry"/>
                </mxCell>
                <mxCell id="545" value="counter == 3 &amp;amp;&amp;amp;&lt;br&gt;io_fire == 1" style="whiteSpace=wrap;html=1;fillColor=#60a917;fontColor=#ffffff;strokeColor=#2D7600;" parent="1" vertex="1">
                    <mxGeometry x="880" y="-520" width="120" height="30" as="geometry"/>
                </mxCell>
                <mxCell id="560" style="edgeStyle=none;html=1;exitX=1;exitY=1;exitDx=0;exitDy=0;entryX=1;entryY=0;entryDx=0;entryDy=0;" parent="1" source="558" target="559" edge="1">
                    <mxGeometry relative="1" as="geometry"/>
                </mxCell>
                <mxCell id="558" value="S_RECV_M&lt;br&gt;1" style="ellipse;whiteSpace=wrap;html=1;" parent="1" vertex="1">
                    <mxGeometry x="748" y="-600" width="140" height="70" as="geometry"/>
                </mxCell>
                <mxCell id="564" style="edgeStyle=none;html=1;exitX=1;exitY=1;exitDx=0;exitDy=0;entryX=1;entryY=0;entryDx=0;entryDy=0;" parent="1" source="559" target="563" edge="1">
                    <mxGeometry relative="1" as="geometry"/>
                </mxCell>
                <mxCell id="559" value="S_RECV_X&lt;br&gt;2" style="ellipse;whiteSpace=wrap;html=1;" parent="1" vertex="1">
                    <mxGeometry x="748" y="-462" width="140" height="70" as="geometry"/>
                </mxCell>
                <mxCell id="561" value="o_in_ready = 1&lt;br&gt;wen_Xp = io_fire&lt;br&gt;incr_ctr = io_fire" style="whiteSpace=wrap;html=1;fillColor=#a20025;fontColor=#ffffff;strokeColor=#6F0000;" parent="1" vertex="1">
                    <mxGeometry x="908" y="-449.5" width="120" height="45" as="geometry"/>
                </mxCell>
                <mxCell id="562" value="counter == 3 &amp;amp;&amp;amp;&lt;br&gt;io_fire == 1" style="whiteSpace=wrap;html=1;fillColor=#60a917;fontColor=#ffffff;strokeColor=#2D7600;" parent="1" vertex="1">
                    <mxGeometry x="885" y="-210" width="120" height="30" as="geometry"/>
                </mxCell>
                <mxCell id="566" style="edgeStyle=none;html=1;exitX=1;exitY=1;exitDx=0;exitDy=0;entryX=1;entryY=0;entryDx=0;entryDy=0;" parent="1" source="563" target="94" edge="1">
                    <mxGeometry relative="1" as="geometry">
                        <mxPoint x="880" y="-360" as="targetPoint"/>
                    </mxGeometry>
                </mxCell>
                <mxCell id="563" value="S_RECV_Y&lt;br&gt;3" style="ellipse;whiteSpace=wrap;html=1;" parent="1" vertex="1">
                    <mxGeometry x="743" y="-330" width="145" height="70" as="geometry"/>
                </mxCell>
                <mxCell id="565" value="o_in_ready = 1&lt;br&gt;wen_Yp = io_fire&lt;br&gt;incr_ctr = io_fire" style="whiteSpace=wrap;html=1;fillColor=#a20025;fontColor=#ffffff;strokeColor=#6F0000;" parent="1" vertex="1">
                    <mxGeometry x="888" y="-322.5" width="120" height="55" as="geometry"/>
                </mxCell>
                <mxCell id="567" value="counter == 3 &amp;amp;&amp;amp;&lt;br&gt;io_fire == 1" style="whiteSpace=wrap;html=1;fillColor=#60a917;fontColor=#ffffff;strokeColor=#2D7600;" parent="1" vertex="1">
                    <mxGeometry x="875" y="-392" width="120" height="30" as="geometry"/>
                </mxCell>
                <mxCell id="569" value="rst_counter = 1" style="whiteSpace=wrap;html=1;fillColor=#a20025;fontColor=#ffffff;strokeColor=#6F0000;" parent="1" vertex="1">
                    <mxGeometry x="880" y="-490" width="120" height="20" as="geometry"/>
                </mxCell>
                <mxCell id="570" value="rst_counter = 1" style="whiteSpace=wrap;html=1;fillColor=#a20025;fontColor=#ffffff;strokeColor=#6F0000;" parent="1" vertex="1">
                    <mxGeometry x="875" y="-362" width="120" height="20" as="geometry"/>
                </mxCell>
                <mxCell id="571" value="rst_counter = 1" style="whiteSpace=wrap;html=1;fillColor=#a20025;fontColor=#ffffff;strokeColor=#6F0000;" parent="1" vertex="1">
                    <mxGeometry x="885" y="-180" width="120" height="20" as="geometry"/>
                </mxCell>
                <mxCell id="573" value="" style="whiteSpace=wrap;html=1;" parent="1" vertex="1">
                    <mxGeometry x="1940" y="1460" width="2070" height="1320" as="geometry"/>
                </mxCell>
                <mxCell id="577" style="edgeStyle=none;html=1;exitX=0;exitY=1;exitDx=0;exitDy=0;entryX=1;entryY=1;entryDx=0;entryDy=0;" parent="1" source="574" target="575" edge="1">
                    <mxGeometry relative="1" as="geometry"/>
                </mxCell>
                <mxCell id="574" value="S_DONE_X&lt;br&gt;10" style="ellipse;whiteSpace=wrap;html=1;" parent="1" vertex="1">
                    <mxGeometry x="740" y="320" width="150" height="80" as="geometry"/>
                </mxCell>
                <mxCell id="579" style="edgeStyle=none;html=1;exitX=0.5;exitY=0;exitDx=0;exitDy=0;entryX=0;entryY=0.5;entryDx=0;entryDy=0;" parent="1" source="575" target="558" edge="1">
                    <mxGeometry relative="1" as="geometry">
                        <Array as="points">
                            <mxPoint x="575" y="-565"/>
                        </Array>
                    </mxGeometry>
                </mxCell>
                <mxCell id="575" value="S_DONE_Y&lt;br&gt;11" style="ellipse;whiteSpace=wrap;html=1;" parent="1" vertex="1">
                    <mxGeometry x="500" y="320" width="150" height="80" as="geometry"/>
                </mxCell>
                <mxCell id="578" value="reduce_fire == 1" style="whiteSpace=wrap;html=1;fillColor=#60a917;fontColor=#ffffff;strokeColor=#2D7600;" parent="1" vertex="1">
                    <mxGeometry x="638" y="345" width="110" height="30" as="geometry"/>
                </mxCell>
                <mxCell id="580" value="reduce_fire == 1" style="whiteSpace=wrap;html=1;fillColor=#60a917;fontColor=#ffffff;strokeColor=#2D7600;" parent="1" vertex="1">
                    <mxGeometry x="520" y="-442" width="110" height="30" as="geometry"/>
                </mxCell>
                <mxCell id="581" value="o_reduce_valid = 1" style="whiteSpace=wrap;html=1;fillColor=#a20025;fontColor=#ffffff;strokeColor=#6F0000;" parent="1" vertex="1">
                    <mxGeometry x="893" y="349.38" width="160" height="21.25" as="geometry"/>
                </mxCell>
                <mxCell id="582" value="o_reduce_valid = 1&lt;br&gt;&lt;div&gt;rst_counter = reduce_fire&lt;/div&gt;&lt;div&gt;rst_pointR = reduce_fire&lt;/div&gt;" style="whiteSpace=wrap;html=1;fillColor=#a20025;fontColor=#ffffff;strokeColor=#6F0000;" parent="1" vertex="1">
                    <mxGeometry x="340" y="330" width="160" height="60" as="geometry"/>
                </mxCell>
            </root>
        </mxGraphModel>
    </diagram>
</mxfile>